<?xml version="1.0" encoding="UTF-8"?>
<!-- Generator: visioncortex VTracer 0.6.3 -->
<svg version="1.1" xmlns="http://www.w3.org/2000/svg" width="1280" height="1280">
<path d="M0 0 C422.4 0 844.8 0 1280 0 C1280 422.4 1280 844.8 1280 1280 C857.6 1280 435.2 1280 0 1280 C0 857.6 0 435.2 0 0 Z " fill="#FAFCFC" transform="translate(0,0)"/>
<path d="M0 0 C0.84 1.7 0.84 1.7 1.69 3.44 C3.42 6.55 3.42 6.55 6.75 7.94 C7.49 7.96 8.24 7.98 9 8 C9.33 9.65 9.66 11.3 10 13 C6.71 13.8 5.29 14.1 2 13 C2.33 13.66 2.66 14.32 3 15 C3.47 18.44 3.87 21.87 4.25 25.32 C4.37 28.97 4.37 28.97 6 32 C7.67 32.04 9.33 32.04 11 32 C11.66 33.65 12.32 35.3 13 37 C12.34 37.66 11.68 38.32 11 39 C9.02 38.67 7.04 38.34 5 38 C5.66 44.6 6.32 51.2 7 58 C9.97 57.5 9.97 57.5 13 57 C15 60 15 60 14.62 62.19 C14.42 62.79 14.21 63.38 14 64 C10.23 64 9.09 63.76 6 62 C6 61.34 6 60.68 6 60 C5.27 59.72 4.53 59.44 3.78 59.15 C1.26 58.11 -1.05 56.93 -3.44 55.62 C-23.03 45.68 -49.57 44.55 -70.48 50.8 C-75.8 52.61 -80.93 54.56 -86 57 C-86.91 57.42 -87.82 57.84 -88.76 58.27 C-104.25 65.95 -116.04 79.86 -122 96 C-129.14 117.77 -128.63 139.97 -119 161 C-116.93 164.59 -114.6 167.79 -112 171 C-111.43 171.75 -110.86 172.49 -110.27 173.26 C-98.39 187.8 -79.5 197.69 -61 200 C-34.99 202.01 -12.51 197.12 10 184 C11.4 183.21 12.79 182.42 14.19 181.62 C15.58 180.82 15.58 180.82 17 180 C18.64 181.64 18.36 183.62 18.57 185.88 C18.67 186.93 18.77 187.97 18.88 189.04 C18.98 190.18 19.08 191.31 19.19 192.48 C19.36 194.22 19.36 194.22 19.52 196 C19.75 198.46 19.98 200.93 20.21 203.39 C20.56 207.15 20.91 210.92 21.27 214.68 C21.5 217.07 21.72 219.46 21.94 221.86 C22.05 222.98 22.15 224.11 22.26 225.27 C22.36 226.32 22.46 227.38 22.56 228.47 C22.64 229.39 22.73 230.32 22.82 231.27 C23.01 234.2 23.1 237.07 23 240 C21.21 241.79 18.52 241.43 16.09 241.65 C14.8 241.77 13.51 241.89 12.18 242.02 C10.73 242.15 9.28 242.28 7.83 242.41 C6.31 242.55 4.79 242.69 3.27 242.83 C-0.91 243.21 -5.08 243.59 -9.26 243.97 C-13.72 244.38 -18.17 244.78 -22.62 245.19 C-31.25 245.98 -39.88 246.77 -48.52 247.56 C-58.48 248.46 -68.44 249.38 -78.41 250.29 C-100.21 252.28 -122.01 254.27 -143.81 256.25 C-153 257.09 -162.2 257.93 -171.39 258.77 C-260.54 266.9 -260.54 266.9 -302.89 270.66 C-312.55 271.51 -322.2 272.38 -331.84 273.27 C-332.78 273.35 -333.71 273.44 -334.67 273.53 C-338.21 273.85 -341.75 274.18 -345.3 274.51 C-348.02 274.76 -350.74 275.02 -353.47 275.27 C-354.26 275.34 -355.06 275.42 -355.88 275.49 C-359.6 275.83 -363.26 276.09 -367 276 C-366.65 277.98 -366.65 277.98 -366 280 C-363.09 281.45 -360.31 281.44 -357.08 281.74 C-356.37 281.81 -355.65 281.87 -354.92 281.94 C-352.55 282.16 -350.19 282.38 -347.82 282.59 C-346.17 282.75 -344.52 282.9 -342.87 283.05 C-338.51 283.46 -334.15 283.86 -329.79 284.26 C-326.27 284.58 -322.74 284.9 -319.22 285.23 C-311.88 285.91 -304.55 286.59 -297.22 287.26 C-296.5 287.33 -295.79 287.39 -295.05 287.46 C-289.77 287.94 -284.49 288.36 -279.2 288.74 C-277 289 -277 289 -275 290 C-273.51 290.18 -272.01 290.32 -270.52 290.42 C-269.57 290.49 -268.62 290.56 -267.65 290.63 C-266.6 290.71 -265.55 290.78 -264.47 290.86 C-254.34 291.63 -244.22 292.51 -234.1 293.5 C-233.4 293.56 -232.71 293.63 -231.99 293.7 C-227.56 294.13 -223.14 294.56 -218.72 295 C-214.78 295.38 -210.84 295.77 -206.9 296.15 C-199.48 296.87 -192.05 297.6 -184.63 298.32 C-176.2 299.15 -167.77 299.97 -159.34 300.79 C-146.89 302 -134.44 303.22 -122 304.43 C-120.03 304.63 -118.07 304.82 -116.1 305.01 C-114.92 305.13 -113.73 305.24 -112.5 305.36 C-111.39 305.47 -110.28 305.58 -109.14 305.69 C-105.43 306.06 -101.71 306.44 -98 306.82 C-95.47 307.05 -92.98 307.07 -90.44 307 C-88.96 306.96 -87.48 306.95 -86 307 C-85.67 307.33 -85.34 307.66 -85 308 C-82.48 308.32 -79.98 308.59 -77.45 308.82 C-76.27 308.93 -76.27 308.93 -75.06 309.04 C-73.34 309.21 -71.61 309.37 -69.89 309.53 C-67.16 309.78 -64.44 310.04 -61.71 310.3 C-53.95 311.04 -46.19 311.76 -38.43 312.49 C-33.69 312.93 -28.95 313.38 -24.21 313.83 C-22.4 314 -20.6 314.17 -18.79 314.34 C-16.26 314.57 -13.72 314.81 -11.19 315.05 C-10.45 315.12 -9.71 315.19 -8.94 315.25 C-4.73 315.67 -0.85 316.2 3 318 C4.29 320.71 4.05 323.16 3.73 326.09 C3.65 326.89 3.56 327.68 3.48 328.5 C3.33 329.77 3.33 329.77 3.19 331.07 C3.09 331.95 3 332.83 2.91 333.73 C2.61 336.53 2.31 339.33 2 342.12 C1.69 344.93 1.39 347.74 1.09 350.54 C0.91 352.29 0.72 354.03 0.52 355.78 C-0.1 360.01 -0.1 360.01 1 364 C0.93 365.91 0.78 367.82 0.6 369.73 C0.42 371.55 0.42 371.55 0.25 373.42 C0.11 374.77 -0.02 376.13 -0.16 377.49 C-0.29 378.91 -0.43 380.34 -0.56 381.76 C-0.93 385.64 -1.31 389.51 -1.69 393.38 C-2.09 397.43 -2.48 401.48 -2.87 405.53 C-3.53 412.33 -4.19 419.14 -4.85 425.94 C-5.62 433.8 -6.38 441.67 -7.14 449.54 C-7.87 457.1 -8.6 464.67 -9.34 472.23 C-9.65 475.45 -9.96 478.67 -10.27 481.89 C-10.64 485.68 -11.01 489.48 -11.38 493.27 C-11.52 494.66 -11.65 496.06 -11.78 497.45 C-11.97 499.35 -12.15 501.25 -12.34 503.15 C-12.45 504.21 -12.55 505.28 -12.66 506.37 C-13 509 -13 509 -14 512 C-14.22 513.52 -14.41 515.04 -14.57 516.56 C-14.67 517.48 -14.77 518.4 -14.88 519.35 C-15.03 520.84 -15.03 520.84 -15.19 522.36 C-15.3 523.37 -15.41 524.39 -15.52 525.44 C-15.87 528.69 -16.22 531.94 -16.56 535.19 C-16.8 537.39 -17.03 539.59 -17.27 541.79 C-17.85 547.2 -18.43 552.6 -19 558 C-34.42 557.38 -49.76 555.9 -65.11 554.42 C-68.75 554.06 -72.4 553.72 -76.04 553.38 C-78.87 553.11 -81.7 552.84 -84.53 552.57 C-86.52 552.38 -88.52 552.19 -90.52 552 C-92.32 551.83 -92.32 551.83 -94.16 551.65 C-95.22 551.55 -96.28 551.45 -97.37 551.34 C-100 551 -100 551 -103 550 C-103 549.34 -103 548.68 -103 548 C-107.95 548 -112.9 548 -118 548 C-117.69 551.9 -117.38 555.79 -117.06 559.69 C-116.93 561.34 -116.93 561.34 -116.8 563.03 C-116.71 564.1 -116.62 565.16 -116.54 566.26 C-116.46 567.24 -116.38 568.22 -116.3 569.23 C-116.01 571.87 -115.56 574.41 -115 577 C-112.03 577 -109.06 577 -106 577 C-105.67 578.65 -105.34 580.3 -105 582 C-105.92 581.97 -105.92 581.97 -106.86 581.93 C-107.67 581.91 -108.48 581.89 -109.31 581.88 C-110.51 581.84 -110.51 581.84 -111.74 581.8 C-114.28 581.84 -114.28 581.84 -117 584 C-117.67 587.46 -117.67 587.46 -117 591 C-114.96 593.19 -114.96 593.19 -112 594 C-108.86 593.68 -108.86 593.68 -106 593 C-105.34 593.33 -104.68 593.66 -104 594 C-103.97 596.15 -103.95 598.29 -103.94 600.44 C-103.93 601.63 -103.91 602.83 -103.9 604.06 C-104 607 -104 607 -105 608 C-107.95 608.12 -110.88 608.16 -113.83 608.17 C-115.25 608.18 -115.25 608.18 -116.69 608.19 C-118.78 608.21 -120.87 608.22 -122.96 608.23 C-126.39 608.25 -129.82 608.27 -133.26 608.29 C-138.32 608.33 -143.39 608.36 -148.45 608.39 C-161.83 608.47 -175.2 608.56 -188.58 608.66 C-190.1 608.67 -191.61 608.69 -193.13 608.7 C-217.71 608.88 -242.3 609.15 -266.88 609.47 C-270.35 609.52 -273.81 609.57 -277.27 609.61 C-279.89 609.65 -282.5 609.68 -285.12 609.71 C-286.87 609.74 -288.63 609.76 -290.38 609.78 C-291.25 609.8 -292.12 609.81 -293.02 609.82 C-354.84 610.64 -416.66 611.2 -478.49 611.19 C-480.94 611.19 -483.39 611.19 -485.85 611.19 C-495.05 611.19 -504.26 611.19 -513.46 611.17 C-516.23 611.17 -519.01 611.17 -521.78 611.17 C-525.54 611.16 -529.3 611.16 -533.06 611.15 C-534.17 611.15 -535.27 611.15 -536.41 611.15 C-537.41 611.14 -538.4 611.14 -539.43 611.13 C-540.29 611.13 -541.16 611.13 -542.05 611.13 C-544 611 -544 611 -545 610 C-545.27 607.24 -545.47 604.51 -545.62 601.75 C-545.7 600.6 -545.7 600.6 -545.78 599.43 C-545.83 598.69 -545.87 597.94 -545.91 597.17 C-545.98 596.15 -545.98 596.15 -546.04 595.11 C-546 593 -546 593 -545.5 590.56 C-544.97 587.86 -544.97 585.56 -545.12 582.81 C-545.17 581.79 -545.22 580.78 -545.27 579.73 C-545.32 578.65 -545.38 577.56 -545.44 576.44 C-546.08 562.29 -546.1 548.16 -546 534 C-542.91 532.45 -539.64 532.82 -536.25 532.79 C-535.45 532.78 -534.65 532.77 -533.82 532.76 C-531.17 532.73 -528.52 532.71 -525.87 532.68 C-524.03 532.66 -522.2 532.64 -520.36 532.62 C-515.52 532.57 -510.69 532.52 -505.85 532.47 C-500.92 532.42 -495.98 532.36 -491.05 532.31 C-481.37 532.2 -471.68 532.1 -462 532 C-462.82 530 -462.82 530 -464 528 C-466.64 527.08 -466.64 527.08 -469.62 526.75 C-470.63 526.6 -471.63 526.45 -472.66 526.3 C-473.43 526.2 -474.21 526.1 -475 526 C-475 527.32 -475 528.64 -475 530 C-476.98 529.67 -478.96 529.34 -481 529 C-480.67 528.01 -480.34 527.02 -480 526 C-483.03 523.07 -485.61 521.71 -489.62 520.69 C-493.75 519.6 -496.52 518.05 -499.94 515.53 C-506.51 511.27 -512.71 510.53 -520.37 509.89 C-521.83 509.74 -523.29 509.59 -524.75 509.44 C-528.01 509.11 -531.28 508.8 -534.54 508.5 C-540.47 507.96 -546.39 507.37 -552.31 506.78 C-567.08 505.3 -581.85 503.89 -596.63 502.47 C-603.59 501.81 -610.55 501.14 -617.51 500.46 C-620.74 500.15 -623.97 499.84 -627.21 499.54 C-629.16 499.35 -631.11 499.16 -633.06 498.97 C-633.96 498.88 -634.86 498.8 -635.78 498.71 C-641.89 498.11 -641.89 498.11 -643 497 C-643.44 490.33 -642.82 483.65 -642.16 477.01 C-642.07 476.11 -641.99 475.2 -641.9 474.27 C-641.72 472.37 -641.53 470.47 -641.35 468.58 C-641.06 465.68 -640.79 462.78 -640.51 459.88 C-640.33 458.03 -640.15 456.18 -639.97 454.32 C-639.89 453.46 -639.81 452.6 -639.72 451.71 C-639.4 448.43 -639.06 445.27 -638.35 442.04 C-638.23 441.37 -638.12 440.69 -638 440 C-638.5 439.34 -638.99 438.68 -639.5 438 C-641 436 -641 436 -640.78 433.73 C-639.22 428.29 -636.02 423.56 -633.19 418.69 C-632.24 417 -632.24 417 -631.28 415.29 C-630.67 414.23 -630.05 413.17 -629.42 412.07 C-628.86 411.1 -628.3 410.13 -627.72 409.12 C-627.15 408.42 -626.59 407.72 -626 407 C-621.28 407 -620.04 408.04 -616.19 410.62 C-602.54 419.4 -587.34 424.15 -571.06 424.38 C-570.36 424.39 -569.67 424.4 -568.95 424.42 C-563.86 424.37 -560.41 423.35 -556 421 C-553.52 417.27 -553.62 415.41 -554 411 C-555.66 406.55 -558.19 405.15 -562.36 403.14 C-567.44 400.95 -572.7 399.24 -577.94 397.45 C-619.14 383.36 -619.14 383.36 -628 367.18 C-633.24 355.59 -631.07 343.85 -628 332 C-626.34 325.34 -625.83 319.25 -626.03 312.37 C-626 309.61 -625.82 307.03 -625.5 304.29 C-625.36 303.08 -625.36 303.08 -625.22 301.85 C-625.11 300.93 -625.11 300.93 -625 300 C-626.26 300.12 -626.26 300.12 -627.55 300.24 C-648.31 302.16 -669.06 304.08 -689.82 306 C-699.86 306.93 -709.9 307.86 -719.94 308.79 C-722.87 309.06 -725.81 309.33 -728.75 309.6 C-730.69 309.78 -732.64 309.96 -734.59 310.14 C-745.12 311.12 -755.65 312.09 -766.18 313.06 C-768.96 313.32 -771.75 313.57 -774.53 313.83 C-776.35 314 -778.17 314.17 -779.98 314.33 C-790.49 315.3 -801 316.28 -811.5 317.28 C-816.71 317.77 -821.93 318.26 -827.15 318.75 C-829.47 318.97 -831.8 319.19 -834.12 319.41 C-837.23 319.72 -840.34 320.01 -843.45 320.3 C-844.77 320.43 -844.77 320.43 -846.12 320.56 C-850.97 321 -855.21 320.9 -860 320 C-862.37 296.82 -864.62 273.62 -866.69 250.41 C-866.77 249.51 -866.85 248.62 -866.94 247.69 C-867.08 246.03 -867.23 244.37 -867.38 242.71 C-867.85 237.46 -868.4 232.23 -869 227 C-868.34 226.67 -867.68 226.34 -867 226 C-866.57 227.24 -866.13 228.48 -865.69 229.75 C-862.62 236.67 -857.27 241.72 -852 247 C-851.34 247.67 -850.68 248.35 -850 249.04 C-835.5 262.76 -814.94 268.95 -795.31 269.31 C-772.87 268.64 -750.83 261.67 -734.57 245.59 C-730.53 241.26 -730.53 241.26 -728 236 C-732.31 231.43 -737.1 227.65 -742.06 223.81 C-742.86 223.18 -743.67 222.56 -744.49 221.91 C-745.27 221.31 -746.05 220.7 -746.85 220.08 C-747.9 219.27 -747.9 219.27 -748.97 218.43 C-750.92 217.06 -752.84 216 -755 215 C-755.49 215.63 -755.97 216.26 -756.48 216.91 C-763.01 224.79 -771.68 231.91 -782 234 C-792.15 234.84 -803.06 235.47 -812 230 C-813.29 229.24 -813.29 229.24 -814.6 228.46 C-824.21 222.26 -828.92 214.94 -832 204 C-834.93 189.51 -832.84 176.33 -824.69 164.02 C-818.78 156.42 -809.44 151.49 -800 150 C-786.08 148.82 -775.37 150.5 -764 159 C-763.32 159.58 -762.63 160.15 -761.93 160.75 C-761.29 161.16 -760.66 161.58 -760 162 C-756.76 160.92 -756.21 160.35 -754.12 157.81 C-750.55 153.59 -746.83 149.54 -743.06 145.5 C-742.47 144.86 -741.88 144.23 -741.27 143.57 C-739.85 142.05 -738.42 140.52 -737 139 C-741 129.73 -751.09 124.6 -760 121 C-785.42 112.53 -811.91 114.28 -836 126 C-855.11 136.58 -865.13 151.95 -872 172 C-873.92 168.7 -874.4 165.91 -874.75 162.13 C-874.86 160.94 -874.97 159.75 -875.09 158.53 C-875.2 157.25 -875.32 155.96 -875.44 154.64 C-875.56 153.28 -875.69 151.93 -875.82 150.58 C-876.15 147.01 -876.48 143.44 -876.8 139.86 C-877.13 136.31 -877.46 132.77 -877.79 129.22 C-878.42 122.42 -879.04 115.61 -879.65 108.8 C-879.99 105.17 -880.33 101.53 -880.67 97.9 C-880.86 95.79 -881.06 93.69 -881.25 91.58 C-881.39 90.15 -881.39 90.15 -881.53 88.69 C-881.61 87.83 -881.69 86.97 -881.77 86.08 C-881.84 85.33 -881.91 84.59 -881.98 83.82 C-882 82 -882 82 -881 80 C-879.25 79.6 -879.25 79.6 -876.91 79.39 C-876.01 79.3 -875.11 79.21 -874.18 79.12 C-872.67 78.99 -872.67 78.99 -871.12 78.86 C-870.04 78.76 -868.96 78.66 -867.84 78.55 C-864.08 78.2 -860.31 77.86 -856.55 77.53 C-853.76 77.27 -850.97 77.01 -848.17 76.75 C-841.76 76.16 -835.35 75.58 -828.94 74.99 C-818.19 74.02 -807.44 73.03 -796.69 72.04 C-769.93 69.57 -743.17 67.13 -716.41 64.69 C-706.82 63.81 -697.22 62.93 -687.63 62.06 C-686.59 61.96 -686.59 61.96 -685.52 61.86 C-682.7 61.61 -679.88 61.35 -677.06 61.09 C-647.49 58.39 -617.93 55.69 -588.37 52.99 C-586.84 52.85 -585.32 52.71 -583.8 52.57 C-582.27 52.43 -580.75 52.29 -579.22 52.15 C-562.43 50.62 -545.63 49.08 -528.83 47.55 C-525.77 47.27 -522.72 46.99 -519.66 46.71 C-514.31 46.22 -508.96 45.73 -503.61 45.25 C-486.89 43.72 -470.16 42.19 -453.43 40.66 C-452.68 40.59 -451.93 40.52 -451.16 40.45 C-430.13 38.53 -409.11 36.61 -388.08 34.69 C-325.98 29.02 -263.87 23.34 -201.77 17.65 C-189.78 16.56 -177.79 15.46 -165.8 14.36 C-165 14.29 -164.19 14.21 -163.36 14.14 C-155.59 13.43 -147.82 12.72 -140.05 12.01 C-136.38 11.67 -132.71 11.33 -129.04 11 C-127.98 10.9 -127.98 10.9 -126.88 10.8 C-115.6 9.77 -104.32 8.73 -93.04 7.7 C-82.11 6.69 -71.19 5.69 -60.26 4.7 C-53.54 4.08 -46.82 3.46 -40.09 2.85 C-36.15 2.48 -32.21 2.12 -28.27 1.77 C-26.49 1.6 -24.71 1.44 -22.94 1.27 C-20.54 1.05 -18.15 0.84 -15.76 0.62 C-15.08 0.56 -14.4 0.49 -13.71 0.43 C-9.12 0.02 -4.6 -0.05 0 0 Z " fill="#FCAB0E" transform="translate(1039,377)"/>
<path d="M0 0 C0.84 1.7 0.84 1.7 1.69 3.44 C3.42 6.55 3.42 6.55 6.75 7.94 C7.49 7.96 8.24 7.98 9 8 C9.33 9.65 9.66 11.3 10 13 C6.71 13.8 5.29 14.1 2 13 C2.33 13.66 2.66 14.32 3 15 C3.47 18.44 3.87 21.87 4.25 25.32 C4.37 28.97 4.37 28.97 6 32 C7.67 32.04 9.33 32.04 11 32 C11.66 33.65 12.32 35.3 13 37 C12.34 37.66 11.68 38.32 11 39 C9.02 38.67 7.04 38.34 5 38 C5.66 44.6 6.32 51.2 7 58 C9.97 57.5 9.97 57.5 13 57 C15 60 15 60 14.62 62.19 C14.42 62.79 14.21 63.38 14 64 C10.23 64 9.09 63.76 6 62 C6 61.34 6 60.68 6 60 C5.27 59.72 4.53 59.44 3.78 59.15 C1.26 58.11 -1.05 56.93 -3.44 55.62 C-23.03 45.68 -49.57 44.55 -70.48 50.8 C-75.8 52.61 -80.93 54.56 -86 57 C-86.91 57.42 -87.82 57.84 -88.76 58.27 C-104.25 65.95 -116.04 79.86 -122 96 C-129.14 117.77 -128.63 139.97 -119 161 C-116.93 164.59 -114.6 167.79 -112 171 C-111.43 171.75 -110.86 172.49 -110.27 173.26 C-98.39 187.8 -79.5 197.69 -61 200 C-34.99 202.01 -12.51 197.12 10 184 C11.4 183.21 12.79 182.42 14.19 181.62 C15.58 180.82 15.58 180.82 17 180 C18.64 181.64 18.36 183.62 18.57 185.88 C18.67 186.93 18.77 187.97 18.88 189.04 C18.98 190.18 19.08 191.31 19.19 192.48 C19.36 194.22 19.36 194.22 19.52 196 C19.75 198.46 19.98 200.93 20.21 203.39 C20.56 207.15 20.91 210.92 21.27 214.68 C21.5 217.07 21.72 219.46 21.94 221.86 C22.05 222.98 22.15 224.11 22.26 225.27 C22.36 226.32 22.46 227.38 22.56 228.47 C22.64 229.39 22.73 230.32 22.82 231.27 C23.01 234.2 23.1 237.07 23 240 C21.21 241.79 18.52 241.43 16.09 241.65 C14.8 241.77 13.51 241.89 12.18 242.02 C10.73 242.15 9.28 242.28 7.83 242.41 C6.31 242.55 4.79 242.69 3.27 242.83 C-0.91 243.21 -5.08 243.59 -9.26 243.97 C-13.72 244.38 -18.17 244.78 -22.62 245.19 C-31.25 245.98 -39.88 246.77 -48.52 247.56 C-58.48 248.46 -68.44 249.38 -78.41 250.29 C-100.21 252.28 -122.01 254.27 -143.81 256.25 C-153 257.09 -162.2 257.93 -171.39 258.77 C-260.54 266.9 -260.54 266.9 -302.89 270.66 C-312.55 271.51 -322.2 272.38 -331.84 273.27 C-332.78 273.35 -333.71 273.44 -334.67 273.53 C-338.21 273.85 -341.75 274.18 -345.3 274.51 C-348.02 274.76 -350.74 275.02 -353.47 275.27 C-354.26 275.34 -355.06 275.42 -355.88 275.49 C-359.6 275.83 -363.26 276.09 -367 276 C-367 277.65 -367 279.3 -367 281 C-380.67 280.37 -394.26 279.21 -407.88 277.87 C-410.12 277.65 -412.36 277.43 -414.6 277.22 C-419.38 276.75 -424.16 276.29 -428.94 275.82 C-436.51 275.08 -444.07 274.35 -451.64 273.61 C-462.24 272.59 -472.84 271.56 -483.44 270.53 C-484.45 270.43 -484.45 270.43 -485.47 270.33 C-488.19 270.06 -490.9 269.8 -493.62 269.53 C-501.12 268.8 -508.62 268.07 -516.12 267.34 C-516.8 267.28 -517.47 267.21 -518.16 267.15 C-529.38 266.05 -540.61 264.97 -551.83 263.88 C-559.35 263.15 -566.87 262.42 -574.39 261.68 C-579.06 261.23 -583.72 260.77 -588.39 260.32 C-590.56 260.11 -592.72 259.9 -594.89 259.69 C-597.84 259.4 -600.79 259.11 -603.74 258.83 C-604.6 258.74 -605.46 258.66 -606.34 258.57 C-610.58 258.17 -614.74 257.91 -619 258 C-620.38 267.67 -621.51 277.36 -622.57 287.07 C-622.78 288.94 -622.78 288.94 -622.99 290.85 C-623.33 293.9 -623.66 296.95 -624 300 C-625.11 300.1 -626.23 300.2 -627.38 300.31 C-638.46 301.31 -649.54 302.31 -660.62 303.32 C-666.71 303.87 -672.79 304.42 -678.88 304.98 C-706.35 307.46 -733.82 309.97 -761.29 312.56 C-766.13 313.01 -770.97 313.47 -775.8 313.92 C-776.82 314.02 -776.82 314.02 -777.85 314.11 C-780.56 314.37 -783.27 314.62 -785.97 314.88 C-794.58 315.68 -803.19 316.5 -811.79 317.32 C-816.75 317.79 -821.7 318.25 -826.66 318.71 C-828.96 318.93 -831.27 319.15 -833.57 319.37 C-836.72 319.68 -839.87 319.97 -843.03 320.26 C-843.94 320.35 -844.86 320.44 -845.8 320.54 C-850.76 320.98 -855.1 320.93 -860 320 C-862.37 296.82 -864.62 273.62 -866.69 250.41 C-866.77 249.51 -866.85 248.62 -866.94 247.69 C-867.08 246.03 -867.23 244.37 -867.38 242.71 C-867.85 237.46 -868.4 232.23 -869 227 C-868.34 226.67 -867.68 226.34 -867 226 C-866.57 227.24 -866.13 228.48 -865.69 229.75 C-862.62 236.67 -857.27 241.72 -852 247 C-851.34 247.67 -850.68 248.35 -850 249.04 C-835.5 262.76 -814.94 268.95 -795.31 269.31 C-772.87 268.64 -750.83 261.67 -734.57 245.59 C-730.53 241.26 -730.53 241.26 -728 236 C-732.31 231.43 -737.1 227.65 -742.06 223.81 C-742.86 223.18 -743.67 222.56 -744.49 221.91 C-745.27 221.31 -746.05 220.7 -746.85 220.08 C-747.9 219.27 -747.9 219.27 -748.97 218.43 C-750.92 217.06 -752.84 216 -755 215 C-755.49 215.63 -755.97 216.26 -756.48 216.91 C-763.01 224.79 -771.68 231.91 -782 234 C-792.15 234.84 -803.06 235.47 -812 230 C-813.29 229.24 -813.29 229.24 -814.6 228.46 C-824.21 222.26 -828.92 214.94 -832 204 C-834.93 189.51 -832.84 176.33 -824.69 164.02 C-818.78 156.42 -809.44 151.49 -800 150 C-786.08 148.82 -775.37 150.5 -764 159 C-763.32 159.58 -762.63 160.15 -761.93 160.75 C-761.29 161.16 -760.66 161.58 -760 162 C-756.76 160.92 -756.21 160.35 -754.12 157.81 C-750.55 153.59 -746.83 149.54 -743.06 145.5 C-742.47 144.86 -741.88 144.23 -741.27 143.57 C-739.85 142.05 -738.42 140.52 -737 139 C-741 129.73 -751.09 124.6 -760 121 C-785.42 112.53 -811.91 114.28 -836 126 C-855.11 136.58 -865.13 151.95 -872 172 C-873.92 168.7 -874.4 165.91 -874.75 162.13 C-874.86 160.94 -874.97 159.75 -875.09 158.53 C-875.2 157.25 -875.32 155.96 -875.44 154.64 C-875.56 153.28 -875.69 151.93 -875.82 150.58 C-876.15 147.01 -876.48 143.44 -876.8 139.86 C-877.13 136.31 -877.46 132.77 -877.79 129.22 C-878.42 122.42 -879.04 115.61 -879.65 108.8 C-879.99 105.17 -880.33 101.53 -880.67 97.9 C-880.86 95.79 -881.06 93.69 -881.25 91.58 C-881.39 90.15 -881.39 90.15 -881.53 88.69 C-881.61 87.83 -881.69 86.97 -881.77 86.08 C-881.84 85.33 -881.91 84.59 -881.98 83.82 C-882 82 -882 82 -881 80 C-879.25 79.6 -879.25 79.6 -876.91 79.39 C-876.01 79.3 -875.11 79.21 -874.18 79.12 C-872.67 78.99 -872.67 78.99 -871.12 78.86 C-870.04 78.76 -868.96 78.66 -867.84 78.55 C-864.08 78.2 -860.31 77.86 -856.55 77.53 C-853.76 77.27 -850.97 77.01 -848.17 76.75 C-841.76 76.16 -835.35 75.58 -828.94 74.99 C-818.19 74.02 -807.44 73.03 -796.69 72.04 C-769.93 69.57 -743.17 67.13 -716.41 64.69 C-706.82 63.81 -697.22 62.93 -687.63 62.06 C-686.59 61.96 -686.59 61.96 -685.52 61.86 C-682.7 61.61 -679.88 61.35 -677.06 61.09 C-647.49 58.39 -617.93 55.69 -588.37 52.99 C-586.84 52.85 -585.32 52.71 -583.8 52.57 C-582.27 52.43 -580.75 52.29 -579.22 52.15 C-562.43 50.62 -545.63 49.08 -528.83 47.55 C-525.77 47.27 -522.72 46.99 -519.66 46.71 C-514.31 46.22 -508.96 45.73 -503.61 45.25 C-486.89 43.72 -470.16 42.19 -453.43 40.66 C-452.68 40.59 -451.93 40.52 -451.16 40.45 C-430.13 38.53 -409.11 36.61 -388.08 34.69 C-325.98 29.02 -263.87 23.34 -201.77 17.65 C-189.78 16.56 -177.79 15.46 -165.8 14.36 C-165 14.29 -164.19 14.21 -163.36 14.14 C-155.59 13.43 -147.82 12.72 -140.05 12.01 C-136.38 11.67 -132.71 11.33 -129.04 11 C-127.98 10.9 -127.98 10.9 -126.88 10.8 C-115.6 9.77 -104.32 8.73 -93.04 7.7 C-82.11 6.69 -71.19 5.69 -60.26 4.7 C-53.54 4.08 -46.82 3.46 -40.09 2.85 C-36.15 2.48 -32.21 2.12 -28.27 1.77 C-26.49 1.6 -24.71 1.44 -22.94 1.27 C-20.54 1.05 -18.15 0.84 -15.76 0.62 C-15.08 0.56 -14.4 0.49 -13.71 0.43 C-9.12 0.02 -4.6 -0.05 0 0 Z " fill="#00264D" transform="translate(1039,377)"/>
<path d="M0 0 C2.14 0.13 2.14 0.13 4.14 2.13 C4.31 4.86 4.38 7.47 4.33 10.19 C4.33 10.94 4.33 11.68 4.33 12.45 C4.28 17.99 4.28 17.99 3.14 19.13 C1.12 19.2 -0.9 19.21 -2.92 19.19 C-4.02 19.18 -5.13 19.17 -6.27 19.16 C-7.12 19.15 -7.98 19.14 -8.86 19.13 C-8.55 23.03 -8.23 26.92 -7.92 30.82 C-7.83 31.92 -7.75 33.02 -7.66 34.16 C-7.57 35.23 -7.48 36.29 -7.39 37.39 C-7.31 38.37 -7.23 39.35 -7.15 40.36 C-6.87 43 -6.42 45.54 -5.86 48.13 C-2.89 48.13 0.08 48.13 3.14 48.13 C3.47 49.78 3.8 51.43 4.14 53.13 C3.22 53.09 3.22 53.09 2.28 53.06 C1.47 53.04 0.66 53.02 -0.17 53 C-0.97 52.98 -1.77 52.96 -2.6 52.93 C-5.14 52.97 -5.14 52.97 -7.86 55.13 C-8.52 58.59 -8.52 58.59 -7.86 62.13 C-5.82 64.32 -5.82 64.32 -2.86 65.13 C0.29 64.81 0.29 64.81 3.14 64.13 C3.8 64.46 4.46 64.79 5.14 65.13 C5.17 67.28 5.19 69.42 5.21 71.57 C5.22 72.76 5.23 73.96 5.24 75.19 C5.14 78.13 5.14 78.13 4.14 79.13 C1.19 79.24 -1.74 79.29 -4.69 79.3 C-5.63 79.31 -6.57 79.32 -7.55 79.32 C-9.64 79.34 -11.73 79.35 -13.82 79.36 C-17.25 79.38 -20.68 79.4 -24.11 79.42 C-29.18 79.46 -34.24 79.49 -39.31 79.52 C-52.68 79.6 -66.06 79.69 -79.44 79.79 C-80.95 79.8 -82.47 79.81 -83.98 79.83 C-108.57 80.01 -133.16 80.28 -157.74 80.6 C-161.2 80.65 -164.66 80.69 -168.13 80.74 C-170.74 80.77 -173.36 80.81 -175.98 80.84 C-177.73 80.87 -179.48 80.89 -181.24 80.91 C-182.11 80.93 -182.98 80.94 -183.87 80.95 C-245.7 81.77 -307.51 82.33 -369.34 82.32 C-371.8 82.32 -374.25 82.32 -376.7 82.32 C-385.91 82.32 -395.11 82.32 -404.32 82.3 C-407.09 82.3 -409.87 82.3 -412.64 82.3 C-416.4 82.29 -420.16 82.29 -423.92 82.27 C-425.02 82.28 -426.13 82.28 -427.27 82.28 C-428.27 82.27 -429.26 82.27 -430.29 82.26 C-431.15 82.26 -432.02 82.26 -432.91 82.26 C-434.86 82.13 -434.86 82.13 -435.86 81.13 C-436.12 78.37 -436.33 75.64 -436.48 72.88 C-436.53 72.11 -436.58 71.35 -436.64 70.56 C-436.68 69.82 -436.73 69.07 -436.77 68.3 C-436.81 67.62 -436.85 66.94 -436.89 66.24 C-436.86 64.13 -436.86 64.13 -436.35 61.69 C-435.83 58.99 -435.83 56.69 -435.98 53.94 C-436.03 52.92 -436.07 51.91 -436.12 50.86 C-436.21 49.23 -436.21 49.23 -436.29 47.57 C-436.94 33.42 -436.96 19.29 -436.86 5.13 C-433.52 3.46 -429.76 3.95 -426.08 3.92 C-425.17 3.91 -424.26 3.9 -423.32 3.89 C-420.28 3.86 -417.24 3.84 -414.19 3.81 C-412.05 3.79 -409.91 3.77 -407.76 3.75 C-403.23 3.71 -398.71 3.66 -394.18 3.63 C-388.5 3.58 -382.83 3.52 -377.15 3.47 C-372.7 3.42 -368.25 3.38 -363.79 3.34 C-361.71 3.32 -359.63 3.3 -357.54 3.28 C-345.31 3.17 -333.08 3.12 -320.85 3.14 C-300.54 3.16 -280.23 3.02 -259.91 2.76 C-251.29 2.65 -242.66 2.56 -234.03 2.45 C-231.99 2.43 -229.95 2.41 -227.91 2.38 C-204.04 2.1 -180.17 1.86 -156.29 1.63 C-152.94 1.59 -149.59 1.56 -146.24 1.53 C-133.93 1.41 -121.62 1.29 -109.32 1.17 C-100.07 1.08 -90.81 0.99 -81.56 0.89 C-70.32 0.78 -59.07 0.67 -47.83 0.56 C-44.64 0.53 -41.45 0.5 -38.26 0.47 C-33.3 0.42 -28.35 0.37 -23.39 0.32 C-21.58 0.31 -19.77 0.29 -17.96 0.27 C-15.5 0.25 -13.03 0.22 -10.57 0.2 C-9.85 0.19 -9.14 0.18 -8.4 0.18 C-4.2 0.14 -4.2 0.14 0 0 Z " fill="#00264D" transform="translate(929.8568153381348,905.8706750869751)"/>
<path d="M0 0 C-0.07 0.83 -0.14 1.67 -0.22 2.53 C-0.86 10.1 -0.86 10.1 -0.94 17.69 C-0.87 23.68 -2.31 29.33 -3.8 35.1 C-6.74 46.76 -7.93 58.3 -1.78 69.15 C9.41 85.35 30.37 91.11 48.08 97.14 C65.22 102.99 65.22 102.99 69.5 107.81 C71.29 111.61 71.6 113.85 71 118 C69.13 121.24 67.81 122.66 64.35 124.12 C60.52 125.13 56.93 125.34 53 125.31 C52.25 125.31 51.51 125.3 50.74 125.3 C33.79 124.93 18.6 118.87 4.71 109.54 C1.94 107.67 1.94 107.67 -2 108 C-4.03 111.48 -6.04 114.97 -8.04 118.46 C-8.72 119.65 -9.4 120.83 -10.09 122.02 C-11.09 123.72 -12.06 125.43 -13.04 127.14 C-13.63 128.17 -14.22 129.19 -14.83 130.25 C-16.2 132.85 -16.2 132.85 -15.75 135.25 C-15.02 137.06 -15.02 137.06 -13.89 138.85 C-12.61 141.93 -13.18 144.08 -13.69 147.38 C-13.89 148.79 -14.09 150.21 -14.29 151.62 C-14.4 152.45 -14.51 153.27 -14.63 154.12 C-15.32 159.52 -15.87 164.95 -16.42 170.37 C-16.62 172.34 -16.83 174.3 -17.03 176.26 C-17.16 177.5 -17.28 178.74 -17.41 180.02 C-17.53 181.13 -17.64 182.23 -17.76 183.36 C-17.96 186.34 -18.02 189.25 -18.02 192.23 C-18.01 193.57 -18.01 193.57 -18.01 194.94 C-18.01 195.62 -18 196.3 -18 197 C-17.39 197.06 -16.78 197.12 -16.15 197.18 C-1.25 198.65 13.65 200.12 28.55 201.59 C35.76 202.3 42.96 203.01 50.17 203.72 C56.46 204.34 62.75 204.96 69.04 205.58 C72.36 205.91 75.68 206.24 79.01 206.57 C87.01 207.35 95 208.16 103 209 C103.84 209.09 104.69 209.17 105.56 209.26 C107.67 209.48 109.78 209.72 111.89 209.97 C112.96 210.09 114.04 210.21 115.15 210.33 C119.5 211.35 122.7 213.66 126.29 216.26 C130.17 218.75 134.24 219.87 138.66 221.08 C139.43 221.38 140.21 221.69 141 222 C141.33 222.99 141.66 223.98 142 225 C142.99 225.33 143.98 225.66 145 226 C144.34 226.99 143.68 227.98 143 229 C144.98 229.33 146.96 229.66 149 230 C149 228.68 149 227.36 149 226 C158.15 225.7 158.15 225.7 161 228 C161.66 229.65 162.32 231.3 163 233 C134.95 233.33 106.9 233.66 78 234 C78.33 245.88 78.66 257.76 79 270 C79 272.64 79 275.28 79 278 C77.93 277.84 76.86 277.67 75.75 277.5 C71.97 276.91 71.97 276.91 68 277 C66.07 276.38 66.07 276.38 64.12 275.56 C60.74 274.24 57.65 273.25 54 273 C53.36 273.38 52.73 273.75 52.07 274.14 C51.39 274.42 50.71 274.71 50 275 C48.04 274.1 48.04 274.1 46.06 272.62 C43.56 270.92 42.21 270.04 39.19 269.5 C36.61 270.09 35.62 270.95 34 273 C32.35 272.34 30.7 271.68 29 271 C29.33 270.01 29.66 269.02 30 268 C29.34 268 28.68 268 28 268 C28 267.34 28 266.68 28 266 C27.36 265.83 26.72 265.66 26.06 265.48 C21.93 264.33 18.06 263.22 14.38 261 C11.75 259.44 9.58 258.39 6.75 257.38 C3 256 3 256 0 254 C-2.19 253.28 -4.4 252.62 -6.62 252 C-7.87 251.65 -9.12 251.3 -10.41 250.93 C-13.3 250.18 -16.13 249.58 -19.06 249.06 C-23.3 248.17 -25.07 246.22 -28 243 C-30.2 241.47 -32.44 240.04 -34.72 238.62 C-37 237 -37 237 -39.3 234.5 C-43.05 231.03 -47.03 229.88 -51.82 228.33 C-53.8 227.62 -53.8 227.62 -57 226 C-57.79 223.56 -57.79 223.56 -58 221 C-61.45 215 -66.75 209.12 -73 206 C-72.83 205.34 -72.66 204.67 -72.49 203.99 C-72.01 201.05 -71.98 198.3 -72.06 195.33 C-72.33 185.85 -71.04 177.23 -69 168 C-68.62 166.08 -68.25 164.17 -67.88 162.25 C-67.45 160.1 -67 158.01 -66.39 155.91 C-65.83 153.18 -66.84 151.46 -68 149 C-68.66 149 -69.32 149 -70 149 C-70 148.01 -70 147.02 -70 146 C-68.05 144.6 -66.04 143.27 -64 142 C-63.34 141.34 -62.68 140.68 -62 140 C-61.87 137.57 -61.87 137.57 -63 135 C-66.93 131.16 -71.18 128.6 -76 126 C-74.75 124.5 -74.75 124.5 -73 123 C-71.68 123 -70.36 123 -69 123 C-79.27 111.67 -93.62 104.59 -107.06 97.77 C-131.91 85.12 -154.93 71.6 -175 52 C-175.66 51.4 -176.32 50.81 -177 50.19 C-185.62 42.21 -193.27 31.51 -196 20 C-196 19.01 -196 18.02 -196 17 C-195.05 16.91 -194.11 16.83 -193.14 16.74 C-170.12 14.63 -147.11 12.51 -124.1 10.4 C-112.98 9.38 -101.85 8.36 -90.72 7.34 C-81.02 6.45 -71.32 5.56 -61.62 4.67 C-56.48 4.2 -51.35 3.72 -46.21 3.25 C-41.38 2.81 -36.54 2.37 -31.7 1.92 C-29.93 1.76 -28.16 1.6 -26.39 1.43 C-23.96 1.21 -21.53 0.99 -19.11 0.77 C-18.37 0.7 -17.64 0.63 -16.88 0.56 C-13.08 0.21 -9.29 -0.2 -5.5 -0.67 C-2 -1 -2 -1 0 0 Z " fill="#EEE4CF" transform="translate(415,677)"/>
<path d="M0 0 C21.18 -0.78 43.8 5.46 59.87 19.47 C74.86 33.52 86.26 50.57 86.98 71.65 C87.39 94.65 83.6 113.57 67.75 131.16 C67.15 131.84 66.56 132.53 65.95 133.23 C51.9 148.48 32.17 154.91 12 156.44 C-8.46 156.95 -28.59 152.33 -45.25 140.16 C-46.09 139.55 -46.93 138.94 -47.8 138.32 C-64.25 125.82 -72.84 110.28 -76.84 90.21 C-79.65 69.44 -74.14 48.35 -62.25 31.16 C-48.45 13.33 -28.18 3.68 -6 0.41 C-4 0.27 -2 0.14 0 0 Z " fill="#00264D" transform="translate(614.25390625,693.84375)"/>
<path d="M0 0 C0.73 0.51 1.46 1.02 2.21 1.55 C18.85 13.9 30.2 30.79 34.5 51.19 C36.22 64.2 35.78 77.4 32 90 C31.71 91.05 31.41 92.1 31.11 93.18 C26.74 106.51 17.07 118.53 6 127 C5.45 127.45 4.91 127.9 4.35 128.37 C-1.15 132.68 -7.56 135.4 -14 138 C-15.03 138.42 -16.06 138.84 -17.12 139.27 C-39.25 146.65 -65.86 143.22 -86.78 133.7 C-91.94 130.97 -96.48 127.68 -101 124 C-101.72 123.42 -102.44 122.85 -103.18 122.25 C-105.19 120.56 -107.1 118.82 -109 117 C-109.98 116.07 -109.98 116.07 -110.99 115.12 C-124.57 101.2 -129.65 81.77 -129.48 62.8 C-128.76 41.23 -119.56 21.42 -103.97 6.54 C-76.75 -16.71 -29.85 -20.94 0 0 Z " fill="#00264D" transform="translate(840,724)"/>
<path d="M0 0 C16.97 14.73 27.87 33.27 29.98 55.75 C31.39 77.44 25.33 96.5 11.02 112.95 C-4.49 129.53 -25.01 138.76 -47.75 139.71 C-74.38 140.14 -95.28 132.63 -114.93 114.25 C-128.41 100.3 -134.06 81.71 -134.56 62.56 C-134.17 40.71 -125.66 21.66 -110.25 6.37 C-82.8 -19.69 -29.91 -24.84 0 0 Z " fill="#FBFDFD" transform="translate(445.24609375,493.62890625)"/>
<path d="M0 0 C0.68 2.17 0.68 2.17 0.93 4.91 C1.03 5.95 1.14 6.99 1.25 8.06 C1.34 9.2 1.44 10.35 1.54 11.53 C1.66 12.73 1.77 13.93 1.89 15.17 C2.21 18.47 2.5 21.78 2.8 25.08 C3.1 28.55 3.44 32.01 3.76 35.47 C4.38 42.05 4.98 48.62 5.58 55.19 C6.25 62.63 6.94 70.07 7.64 77.51 C9.02 92.34 10.39 107.17 11.73 122.01 C11.91 124.04 12.1 126.08 12.29 128.12 C12.38 129.1 12.47 130.08 12.57 131.09 C12.69 132.39 12.69 132.39 12.81 133.72 C13.03 136.38 13.1 139.02 13.06 141.69 C13.05 142.52 13.04 143.35 13.04 144.2 C13.02 145.09 13.02 145.09 13 146 C9.26 147.87 4.81 147.7 0.69 148.06 C-0.3 148.15 -1.29 148.24 -2.31 148.33 C-9.57 148.95 -16.72 149.25 -24 149 C-26.38 142.13 -26.82 135.13 -27.47 127.93 C-27.6 126.56 -27.73 125.19 -27.86 123.83 C-28.2 120.24 -28.53 116.66 -28.86 113.07 C-29.39 107.32 -29.93 101.58 -30.47 95.84 C-30.66 93.84 -30.84 91.84 -31.02 89.84 C-31.14 88.62 -31.25 87.4 -31.37 86.15 C-31.47 85.08 -31.56 84.01 -31.67 82.91 C-31.97 80.23 -32.43 77.64 -33 75 C-41.68 92.14 -49.9 109.51 -58.1 126.89 C-60.01 130.95 -61.97 134.99 -64 139 C-66.9 139.3 -69.79 139.57 -72.69 139.81 C-73.5 139.9 -74.32 139.99 -75.16 140.08 C-79.18 140.39 -81.25 140.54 -84.6 138.13 C-85.39 137.1 -86.18 136.07 -87 135 C-87.85 133.93 -87.85 133.93 -88.72 132.84 C-90.74 130.28 -92.72 127.67 -94.69 125.06 C-95.4 124.12 -96.11 123.18 -96.84 122.22 C-101.46 116.1 -105.97 109.92 -110.38 103.66 C-113.28 99.58 -116.29 95.58 -119.3 91.58 C-119.85 90.85 -120.4 90.12 -120.97 89.36 C-122.31 87.57 -123.65 85.79 -125 84 C-124.92 84.81 -124.85 85.62 -124.77 86.45 C-124.06 94.1 -123.36 101.75 -122.65 109.4 C-122.29 113.33 -121.93 117.27 -121.56 121.2 C-121.21 125 -120.86 128.8 -120.51 132.6 C-120.38 134.04 -120.25 135.49 -120.11 136.93 C-119.45 143.96 -118.81 150.93 -119 158 C-122.1 159.55 -125.44 159.48 -128.85 159.75 C-129.63 159.82 -130.4 159.88 -131.2 159.95 C-133.67 160.16 -136.15 160.36 -138.62 160.56 C-140.3 160.7 -141.98 160.84 -143.66 160.98 C-147.77 161.33 -151.89 161.66 -156 162 C-157.82 158.83 -158.37 156.22 -158.7 152.59 C-158.85 150.94 -158.85 150.94 -159.01 149.26 C-159.12 148.06 -159.22 146.86 -159.33 145.62 C-159.45 144.35 -159.56 143.08 -159.68 141.77 C-160.01 138.3 -160.32 134.82 -160.63 131.33 C-160.95 127.68 -161.29 124.03 -161.62 120.38 C-162.18 114.24 -162.73 108.1 -163.28 101.96 C-163.91 94.89 -164.55 87.81 -165.2 80.74 C-165.82 73.92 -166.44 67.09 -167.05 60.27 C-167.31 57.38 -167.57 54.49 -167.84 51.59 C-168.21 47.53 -168.57 43.48 -168.93 39.42 C-169.09 37.64 -169.09 37.64 -169.26 35.83 C-169.9 28.53 -170.13 21.32 -170 14 C-166.21 12.11 -161.67 12.31 -157.5 11.94 C-156.07 11.8 -156.07 11.8 -154.6 11.66 C-152.68 11.49 -150.76 11.34 -148.83 11.2 C-146.97 11.07 -145.12 10.89 -143.27 10.67 C-137.08 10.16 -137.08 10.16 -134.23 12.39 C-132.53 14.44 -131.14 16.54 -129.75 18.81 C-128.64 20.48 -127.53 22.14 -126.42 23.8 C-125.86 24.67 -125.29 25.53 -124.72 26.42 C-121.98 30.53 -119.02 34.48 -116.06 38.44 C-114.89 40.03 -113.71 41.62 -112.54 43.21 C-111.95 44 -111.37 44.79 -110.77 45.61 C-108.42 48.78 -106.08 51.96 -103.75 55.13 C-102.59 56.7 -101.43 58.27 -100.27 59.84 C-97.21 63.98 -94.17 68.14 -91.15 72.31 C-90.52 73.18 -89.89 74.05 -89.23 74.94 C-88.02 76.61 -86.82 78.28 -85.62 79.95 C-85.07 80.7 -84.52 81.45 -83.96 82.22 C-83.48 82.88 -83.01 83.54 -82.52 84.22 C-80.86 86.16 -79.09 87.54 -77 89 C-67.57 70.4 -58.49 51.62 -49.74 32.69 C-48.63 30.3 -47.52 27.91 -46.41 25.52 C-44.2 20.78 -41.99 16.03 -39.95 11.21 C-39.65 10.54 -39.36 9.87 -39.05 9.19 C-38.33 7.56 -37.64 5.92 -36.95 4.27 C-33.91 0.73 -30.49 0.58 -26 0 C-25.1 -0.12 -24.2 -0.24 -23.27 -0.36 C-20.41 -0.71 -17.55 -0.99 -14.69 -1.25 C-13.71 -1.35 -12.74 -1.46 -11.73 -1.56 C-10.79 -1.65 -9.85 -1.74 -8.89 -1.83 C-7.62 -1.95 -7.62 -1.95 -6.33 -2.08 C-3.58 -1.99 -2.27 -1.55 0 0 Z " fill="#FAFCFC" transform="translate(656,459)"/>
<path d="M0 0 C3.29 -0.12 6.57 -0.12 9.86 -0.05 C11.41 -0.01 12.95 0.01 14.5 0.02 C17.26 0.06 20 0.18 22.75 0.31 C23.64 0.32 24.52 0.32 25.44 0.32 C29.65 0.59 32.1 1.1 35.14 4.15 C37.26 7.02 39.14 9.96 41 13 C42.3 14.94 43.61 16.87 44.93 18.8 C46.25 20.78 47.56 22.76 48.88 24.75 C49.57 25.8 50.27 26.85 50.99 27.94 C52.37 30.02 53.76 32.11 55.14 34.19 C57.5 37.76 59.87 41.32 62.25 44.88 C64.82 48.73 67.39 52.59 69.96 56.45 C74.65 63.51 79.34 70.57 84.12 77.56 C84.83 78.6 85.53 79.63 86.26 80.69 C87.79 83.08 87.79 83.08 90 84 C90 84.66 90 85.32 90 86 C90.66 86 91.32 86 92 86 C91.99 85.37 91.97 84.75 91.96 84.1 C91.85 76.16 92.49 68.37 93.28 60.47 C93.41 59.1 93.54 57.73 93.67 56.37 C93.95 53.53 94.23 50.69 94.51 47.85 C94.87 44.21 95.22 40.57 95.57 36.93 C95.84 34.12 96.12 31.3 96.39 28.49 C96.59 26.5 96.78 24.5 96.97 22.51 C97.09 21.31 97.21 20.1 97.34 18.86 C97.49 17.27 97.49 17.27 97.65 15.64 C98 13 98 13 99 10 C105.48 8.66 111.46 9.37 118 10.04 C120.06 10.25 122.12 10.44 124.19 10.62 C126.15 10.82 126.15 10.82 128.16 11.02 C129.95 11.19 129.95 11.19 131.77 11.37 C135.14 12.03 137.13 13.18 140 15 C138.22 34.02 136.43 53.04 134.63 72.06 C133.79 80.89 132.96 89.72 132.13 98.55 C131.41 106.24 130.69 113.93 129.95 121.63 C129.57 125.7 129.18 129.78 128.8 133.86 C128.45 137.69 128.09 141.52 127.72 145.35 C127.58 146.76 127.45 148.17 127.32 149.58 C127.15 151.5 126.96 153.42 126.77 155.34 C126.67 156.41 126.57 157.49 126.46 158.6 C126.23 159.79 126.23 159.79 126 161 C123.2 162.4 121.25 161.85 118.14 161.51 C116.96 161.38 115.78 161.25 114.57 161.12 C113.33 160.98 112.09 160.83 110.81 160.69 C109.59 160.56 108.37 160.43 107.12 160.29 C105.93 160.16 104.74 160.02 103.52 159.89 C101.9 159.7 101.9 159.7 100.24 159.52 C90.99 158.04 90.99 158.04 87.41 154.28 C86.57 153.11 85.75 151.92 84.95 150.72 C84.49 150.07 84.04 149.41 83.56 148.73 C82.02 146.51 80.51 144.26 79 142 C78.46 141.19 77.91 140.38 77.35 139.54 C73.1 133.21 68.92 126.83 64.75 120.44 C62.19 116.53 59.63 112.63 57.07 108.72 C56.14 107.31 56.14 107.31 55.2 105.87 C49.86 97.76 44.43 89.72 38.86 81.76 C38.33 81 37.81 80.24 37.26 79.46 C36.82 78.83 36.37 78.2 35.92 77.55 C35 76 35 76 35 74 C34.34 74 33.68 74 33 74 C33.02 74.94 33.02 74.94 33.04 75.9 C33.15 83.83 32.51 91.61 31.72 99.5 C31.59 100.86 31.46 102.23 31.33 103.59 C31.05 106.43 30.77 109.26 30.49 112.1 C30.13 115.73 29.78 119.36 29.43 122.99 C29.16 125.8 28.88 128.61 28.61 131.41 C28.41 133.4 28.22 135.39 28.03 137.38 C27.91 138.58 27.79 139.79 27.66 141.03 C27.56 142.09 27.46 143.15 27.35 144.24 C27.05 146.57 26.64 148.74 26 151 C17.16 151.21 8.59 150.59 -0.19 149.56 C-2.03 149.36 -2.03 149.36 -3.9 149.15 C-12.87 148.13 -12.87 148.13 -14 147 C-14.53 138.46 -13.67 129.95 -12.82 121.46 C-12.7 120.16 -12.57 118.87 -12.44 117.53 C-12.1 114.02 -11.76 110.51 -11.41 106.99 C-11.04 103.3 -10.68 99.61 -10.32 95.92 C-9.72 89.74 -9.11 83.56 -8.5 77.38 C-7.79 70.23 -7.09 63.08 -6.4 55.94 C-5.73 49.04 -5.05 42.15 -4.37 35.26 C-4.09 32.33 -3.8 29.4 -3.51 26.48 C-3.12 22.4 -2.71 18.32 -2.31 14.25 C-2.13 12.42 -2.13 12.42 -1.95 10.56 C-1.78 8.9 -1.78 8.9 -1.61 7.21 C-1.52 6.25 -1.42 5.28 -1.33 4.29 C-1 2 -1 2 0 0 Z " fill="#00264D" transform="translate(900,725)"/>
<path d="M0 0 C1.72 1.72 1.4 4.08 1.61 6.44 C1.78 8.21 1.78 8.21 1.95 10.02 C2.07 11.32 2.19 12.63 2.31 13.98 C2.43 15.36 2.56 16.74 2.69 18.12 C3.04 21.88 3.38 25.65 3.73 29.41 C4.09 33.34 4.45 37.28 4.81 41.21 C5.42 47.82 6.03 54.43 6.63 61.04 C7.33 68.68 8.03 76.33 8.73 83.97 C9.41 91.31 10.09 98.66 10.76 106.01 C11.05 109.13 11.33 112.26 11.62 115.39 C11.96 119.08 12.3 122.76 12.64 126.45 C12.82 128.45 13 130.44 13.19 132.44 C13.29 133.63 13.4 134.82 13.51 136.05 C13.61 137.09 13.7 138.12 13.8 139.19 C13.99 141.8 14.04 144.38 14 147 C11.71 147.32 9.42 147.63 7.12 147.94 C5.85 148.11 4.57 148.29 3.26 148.46 C2.48 148.53 1.7 148.6 0.9 148.67 C-2.17 148.97 -2.17 148.97 -5.85 149.8 C-11.43 150.78 -16.99 151.54 -22.2 148.88 C-27.8 144.91 -32.39 139.84 -37.07 134.86 C-38.61 133.29 -40.15 131.72 -41.7 130.16 C-45.74 126.06 -49.72 121.9 -53.69 117.74 C-57.75 113.49 -61.88 109.3 -66 105.11 C-71.98 98.99 -77.95 92.86 -83.86 86.67 C-84.49 86.02 -85.11 85.37 -85.76 84.7 C-90 80.23 -90 80.23 -90 78 C-90.66 78 -91.32 78 -92 78 C-91.93 78.62 -91.86 79.24 -91.79 79.87 C-89.94 96.36 -88.32 112.86 -86.81 129.38 C-86.68 130.84 -86.68 130.84 -86.54 132.34 C-86.28 135.15 -86.02 137.96 -85.77 140.77 C-85.69 141.62 -85.61 142.46 -85.53 143.33 C-85.16 147.57 -84.92 151.74 -85 156 C-94.24 157.39 -103.51 158.41 -112.81 159.25 C-113.88 159.35 -114.95 159.46 -116.05 159.57 C-117.05 159.65 -118.05 159.74 -119.08 159.83 C-119.98 159.91 -120.88 159.99 -121.81 160.08 C-124 160 -124 160 -126 158 C-126.4 155.6 -126.69 153.28 -126.9 150.87 C-126.98 150.12 -127.05 149.38 -127.12 148.61 C-127.37 146.11 -127.6 143.6 -127.83 141.1 C-128 139.31 -128.17 137.52 -128.34 135.73 C-128.81 130.85 -129.26 125.96 -129.72 121.08 C-130 117.99 -130.29 114.9 -130.58 111.82 C-131.79 98.9 -132.97 85.99 -134.15 73.07 C-134.66 67.45 -135.17 61.84 -135.69 56.23 C-136.09 51.84 -136.49 47.46 -136.89 43.07 C-137.07 41 -137.26 38.93 -137.46 36.85 C-137.72 33.98 -137.98 31.12 -138.24 28.25 C-138.32 27.41 -138.39 26.57 -138.47 25.71 C-138.88 21.12 -139.08 16.61 -139 12 C-134.55 10.52 -130.03 10.35 -125.38 9.94 C-124.41 9.85 -123.45 9.76 -122.46 9.66 C-121.51 9.58 -120.56 9.49 -119.59 9.4 C-118.73 9.32 -117.88 9.25 -116.99 9.17 C-116.01 9.11 -115.02 9.06 -114 9 C-113.01 8.88 -113.01 8.88 -111.99 8.76 C-107.57 8.44 -104.8 8.64 -101.36 11.57 C-100.14 12.77 -98.95 13.99 -97.78 15.23 C-97.12 15.89 -96.46 16.55 -95.78 17.23 C-93.62 19.41 -91.49 21.63 -89.35 23.84 C-87.85 25.36 -86.34 26.89 -84.84 28.41 C-80.88 32.41 -76.96 36.43 -73.03 40.46 C-67.49 46.15 -61.92 51.8 -56.35 57.46 C-53.38 60.47 -50.42 63.49 -47.48 66.52 C-46.13 67.89 -44.79 69.27 -43.44 70.64 C-42.83 71.28 -42.22 71.91 -41.59 72.56 C-38.26 75.98 -38.26 75.98 -34 78 C-34.08 77.19 -34.15 76.39 -34.23 75.55 C-34.94 67.92 -35.64 60.29 -36.35 52.65 C-36.71 48.73 -37.07 44.8 -37.44 40.88 C-37.79 37.08 -38.14 33.29 -38.49 29.5 C-38.62 28.06 -38.75 26.62 -38.89 25.17 C-39.58 17.77 -40.17 10.45 -40 3 C-34.67 1.22 -28.95 1.11 -23.38 0.59 C-21.14 0.38 -18.9 0.15 -16.67 -0.07 C-15.24 -0.21 -13.81 -0.34 -12.38 -0.48 C-11.09 -0.6 -9.79 -0.73 -8.46 -0.85 C-5.37 -0.98 -2.96 -0.84 0 0 Z " fill="#FAFCFC" transform="translate(887,437)"/>
<path d="M0 0 C1.25 2.16 1.25 2.16 2 4 C2.66 4 3.32 4 4 4 C2.7 8.32 1.03 11.9 -1.31 15.75 C-4.48 21.05 -7.33 26.44 -10 32 C-14.29 32 -15.38 31.44 -18.94 29.31 C-33.72 20.96 -49.8 16.44 -66.77 19.5 C-69.82 20.49 -71.81 21.8 -74 24.12 C-75.39 28.12 -75.25 31.81 -75 36 C-74.3 36.27 -73.59 36.54 -72.87 36.82 C-69.88 38.05 -67 39.42 -64.09 40.82 C-55.89 44.62 -47.41 47.36 -38.82 50.12 C-21.72 55.81 -8.37 63.44 0 80 C3.12 89.35 2.43 103.74 -1.62 112.66 C-9.94 126.8 -22.15 134.65 -37.86 138.75 C-65.8 144.34 -98.03 137.26 -121.85 122.2 C-122.58 121.7 -123.31 121.2 -124.06 120.69 C-124.82 120.18 -125.57 119.66 -126.35 119.14 C-126.89 118.76 -127.44 118.39 -128 118 C-127.05 111.47 -123.46 106.31 -120.19 100.69 C-119.24 99 -119.24 99 -118.28 97.29 C-117.36 95.7 -117.36 95.7 -116.42 94.07 C-115.58 92.61 -115.58 92.61 -114.72 91.12 C-114.15 90.42 -113.59 89.72 -113 89 C-108.28 89 -107.04 90.04 -103.19 92.62 C-89.54 101.4 -74.34 106.15 -58.06 106.38 C-57.36 106.39 -56.67 106.4 -55.95 106.42 C-50.86 106.37 -47.41 105.35 -43 103 C-40.52 99.27 -40.62 97.41 -41 93 C-42.66 88.55 -45.19 87.15 -49.36 85.14 C-54.44 82.95 -59.7 81.24 -64.94 79.45 C-106.14 65.36 -106.14 65.36 -115 49.18 C-119.96 38.2 -119.01 25.13 -115 14 C-107.57 -0.18 -97.24 -7.49 -82.25 -12.25 C-57.96 -19.55 -20.85 -15.61 0 0 Z " fill="#00264D" transform="translate(526,695)"/>
<path d="M0 0 C-0.07 0.83 -0.14 1.67 -0.22 2.53 C-0.86 10.1 -0.86 10.1 -0.94 17.69 C-0.87 23.6 -2.25 29.19 -3.77 34.87 C-5.87 43 -6.3 50.39 -6.06 58.75 C-5.9 69.35 -6.33 79.53 -8 90 C-15.13 89.6 -20.26 87.25 -26.54 83.97 C-27.53 83.46 -28.53 82.95 -29.55 82.42 C-31.66 81.34 -33.76 80.26 -35.86 79.17 C-39.02 77.52 -42.19 75.9 -45.37 74.27 C-61.01 66.24 -76.23 58.04 -90 47 C-90.57 46.55 -91.14 46.1 -91.73 45.63 C-101.81 37.59 -110.73 29.05 -116 17 C-115.56 14.25 -115.56 14.25 -115 12 C-115.66 11.34 -116.32 10.68 -117 10 C-94.97 7.64 -72.91 5.59 -50.84 3.61 C-43.94 2.99 -37.04 2.37 -30.14 1.74 C-27.77 1.53 -25.39 1.32 -23.02 1.1 C-21.55 0.97 -20.09 0.84 -18.63 0.71 C-17.95 0.65 -17.26 0.59 -16.56 0.52 C-12.89 0.19 -9.24 -0.2 -5.58 -0.66 C-2 -1 -2 -1 0 0 Z " fill="#B6C2CD" transform="translate(415,677)"/>
<path d="M0 0 C1.61 1.61 1.34 3.45 1.55 5.67 C1.65 6.69 1.75 7.71 1.85 8.75 C1.95 9.88 2.06 11.01 2.16 12.17 C2.28 13.36 2.39 14.55 2.51 15.77 C2.82 19.07 3.13 22.37 3.43 25.67 C3.69 28.45 3.95 31.22 4.21 33.99 C5.07 43.16 5.92 52.33 6.77 61.5 C7 64.05 7.24 66.61 7.48 69.16 C8.54 80.6 9.59 92.04 10.64 103.48 C10.87 106.06 11.11 108.64 11.35 111.23 C11.73 115.32 12.1 119.4 12.47 123.49 C12.61 125 12.75 126.51 12.89 128.02 C13.08 130.1 13.27 132.17 13.45 134.25 C13.56 135.41 13.67 136.58 13.77 137.78 C13.99 140.87 14.04 143.91 14 147 C4.59 148.44 -4.83 149.43 -14.31 150.25 C-15.43 150.35 -16.54 150.46 -17.69 150.57 C-18.74 150.65 -19.79 150.74 -20.86 150.83 C-21.8 150.91 -22.75 150.99 -23.72 151.08 C-26 151 -26 151 -28 149 C-28.43 146.79 -28.43 146.79 -28.69 143.98 C-28.79 142.91 -28.89 141.85 -29 140.75 C-29.1 139.58 -29.21 138.41 -29.31 137.2 C-29.43 135.97 -29.54 134.74 -29.66 133.47 C-29.98 130.08 -30.29 126.7 -30.59 123.31 C-30.91 119.75 -31.25 116.19 -31.58 112.64 C-32.13 106.65 -32.68 100.66 -33.22 94.67 C-33.92 87.03 -34.62 79.39 -35.33 71.75 C-35.94 65.14 -36.55 58.54 -37.15 51.93 C-37.35 49.83 -37.54 47.73 -37.73 45.63 C-39.04 31.43 -40.33 17.25 -41 3 C-32.12 1.73 -23.24 0.67 -14.31 -0.19 C-12.88 -0.33 -12.88 -0.33 -11.42 -0.48 C-10.51 -0.56 -9.61 -0.64 -8.68 -0.73 C-7.87 -0.81 -7.07 -0.88 -6.24 -0.96 C-3.95 -1 -2.17 -0.71 0 0 Z " fill="#FBFDFD" transform="translate(722,452)"/>
<path d="M0 0 C2 1 2 1 3.38 3.56 C3.91 4.37 4.45 5.17 5 6 C6.32 6 7.64 6 9 6 C11 9 11 9 10.62 11.19 C10.42 11.79 10.21 12.38 10 13 C6.99 13.93 6.13 14.04 3 13 C3.49 13.99 3.49 13.99 4 15 C4.52 19.01 4.8 23.04 5.12 27.06 C5.27 28.75 5.27 28.75 5.43 30.48 C5.51 31.55 5.6 32.62 5.7 33.72 C5.78 34.71 5.86 35.7 5.95 36.72 C5.96 37.47 5.98 38.22 6 39 C4.04 40.96 0.38 40.53 -2.32 40.75 C-3.41 40.85 -3.41 40.85 -4.53 40.95 C-6.87 41.16 -9.22 41.36 -11.56 41.56 C-13.15 41.7 -14.73 41.84 -16.32 41.98 C-20.21 42.33 -24.11 42.66 -28 43 C-27.87 43.85 -27.74 44.7 -27.6 45.57 C-26.34 54 -25.47 62.37 -24.88 70.88 C-24.79 72.05 -24.7 73.23 -24.61 74.44 C-24.4 77.29 -24.2 80.15 -24 83 C-25.89 83.99 -27.79 84.96 -29.69 85.94 C-31.27 86.76 -31.27 86.76 -32.89 87.59 C-41.36 91.43 -53.05 91.33 -62.05 89.32 C-64.5 88.37 -66.71 87.29 -69 86 C-70.27 85.35 -70.27 85.35 -71.57 84.68 C-80.2 79.96 -85.92 74.02 -89.22 64.69 C-93.06 51.46 -93.33 37.52 -87 25 C-81.43 15.54 -72.53 9.52 -62.05 6.49 C-47.84 3.1 -34.53 5.53 -22 13 C-18.88 15.31 -18.88 15.31 -17 17 C-13.24 15.47 -11.15 13.21 -8.5 10.19 C-7.75 9.34 -6.99 8.48 -6.22 7.61 C-4.09 5.11 -2.03 2.57 0 0 Z " fill="#00264D" transform="translate(1045,453)"/>
<path d="M0 0 C7.72 6.41 13.17 16.15 15.32 25.93 C16.56 41.67 14.63 54.17 4.8 66.9 C-1.91 74.34 -11.19 78.28 -21.03 79.13 C-33.76 79.39 -44.17 75.51 -53.75 67.11 C-61.89 58.67 -65.05 47.27 -64.89 35.77 C-63.91 22.8 -59.29 10.86 -49.68 1.93 C-34.96 -9.14 -15.44 -10 0 0 Z " fill="#FDAB0E" transform="translate(643.6796875,736.07421875)"/>
<path d="M0 0 C8.35 7.07 14.76 16.67 16.02 27.71 C16.92 42.97 14.92 54.34 5.02 66.09 C-1.65 73.34 -8.07 77.49 -18.03 78.15 C-19.89 78.21 -21.74 78.25 -23.6 78.28 C-24.93 78.3 -24.93 78.3 -26.28 78.32 C-36.8 78.16 -45.96 73.14 -53.7 66.16 C-62.23 57.04 -64.48 45.79 -64.26 33.71 C-63.97 27.71 -62.16 22.28 -59.98 16.71 C-59.7 15.97 -59.42 15.22 -59.14 14.45 C-55.42 5.76 -47.93 -0.55 -39.45 -4.36 C-26.27 -9.31 -11.58 -8.55 0 0 Z " fill="#FDAB0E" transform="translate(816.9765625,753.28515625)"/>
<path d="M0 0 C10.02 9.49 14.78 23.04 15.31 36.56 C14.96 48.43 10.98 58.42 2.88 67.12 C0.03 69.48 -2.89 71.36 -6.12 73.12 C-7.2 73.72 -8.27 74.32 -9.38 74.94 C-17.88 78.61 -29.22 78.47 -37.94 75.56 C-48.88 70.94 -57.2 64.11 -61.94 53.19 C-66.21 41.12 -66.36 28.26 -62.12 16.12 C-56.76 5.01 -49.39 -1.6 -37.93 -5.94 C-25.36 -10.14 -10.57 -8.11 0 0 Z " fill="#00264D" transform="translate(418.125,520.875)"/>
<path d="M0 0 C0 0.66 0 1.32 0 2 C0.66 2 1.32 2 2 2 C9.22 15.57 11.34 25.65 11 41 C4.8 41.08 -1.23 40.81 -7.4 40.17 C-8.74 40.04 -8.74 40.04 -10.1 39.91 C-12.03 39.72 -13.95 39.53 -15.87 39.33 C-18.92 39.03 -21.97 38.73 -25.02 38.43 C-32.59 37.68 -40.16 36.93 -47.73 36.17 C-54.13 35.53 -60.54 34.9 -66.95 34.27 C-69.94 33.97 -72.93 33.67 -75.92 33.37 C-77.77 33.19 -79.62 33.01 -81.47 32.83 C-82.7 32.7 -82.7 32.7 -83.95 32.57 C-89.65 32.02 -95.28 31.91 -101 32 C-101 31.67 -101 31.34 -101 31 C-102.05 30.9 -103.09 30.81 -104.17 30.71 C-114.01 29.81 -123.86 28.9 -133.7 27.97 C-138.76 27.5 -143.82 27.03 -148.89 26.57 C-153.77 26.12 -158.65 25.67 -163.53 25.21 C-165.4 25.03 -167.26 24.86 -169.13 24.69 C-171.73 24.46 -174.34 24.21 -176.95 23.96 C-177.72 23.89 -178.5 23.83 -179.3 23.76 C-182.93 23.4 -184.9 23.07 -188 21 C-188 19.68 -188 18.36 -188 17 C-177.66 15.66 -167.32 14.49 -156.93 13.53 C-155.55 13.4 -154.17 13.27 -152.79 13.14 C-149.94 12.87 -147.08 12.61 -144.22 12.34 C-140.6 12 -136.98 11.67 -133.35 11.33 C-130.52 11.06 -127.68 10.79 -124.84 10.53 C-122.87 10.35 -120.9 10.16 -118.93 9.98 C-113.07 9.43 -107.21 8.93 -101.33 8.53 C-93.08 7.96 -84.85 7.19 -76.62 6.41 C-73.78 6.15 -70.94 5.88 -68.11 5.62 C-60.05 4.87 -51.99 4.12 -43.93 3.36 C-38.97 2.9 -34.02 2.44 -29.06 1.98 C-27.18 1.8 -25.3 1.63 -23.42 1.45 C-20.8 1.2 -18.18 0.96 -15.56 0.72 C-14.79 0.65 -14.03 0.57 -13.24 0.5 C-8.8 0.09 -4.45 -0.07 0 0 Z " fill="#B6C3CE" transform="translate(860,636)"/>
<path d="M0 0 C2.54 4.62 4.84 9.27 6.75 14.19 C7.02 14.86 7.29 15.54 7.56 16.23 C10.3 23.99 10.09 31.7 9.94 39.81 C9.92 41.21 9.91 42.61 9.9 44.01 C9.86 47.4 9.81 50.8 9.75 54.19 C1.31 54.41 -6.99 53.54 -15.37 52.69 C-16.92 52.54 -18.47 52.38 -20.03 52.23 C-23.26 51.91 -26.49 51.58 -29.73 51.25 C-33.87 50.83 -38.02 50.42 -42.17 50.01 C-45.37 49.69 -48.56 49.37 -51.76 49.05 C-53.29 48.89 -54.82 48.74 -56.35 48.59 C-58.48 48.38 -60.61 48.16 -62.74 47.94 C-63.95 47.82 -65.16 47.7 -66.41 47.57 C-69.25 47.19 -69.25 47.19 -71.25 46.19 C-71.49 43.73 -71.62 41.34 -71.69 38.88 C-72.17 28.66 -73.79 19.74 -79.26 10.93 C-80.25 9.19 -80.25 9.19 -80.25 7.19 C-80.91 7.19 -81.57 7.19 -82.25 7.19 C-82.25 6.53 -82.25 5.87 -82.25 5.19 C-66.55 3.32 -50.83 1.72 -35.08 0.27 C-33.12 0.09 -31.16 -0.09 -29.2 -0.27 C-26.4 -0.53 -23.6 -0.79 -20.8 -1.04 C-19.97 -1.12 -19.14 -1.2 -18.29 -1.28 C-3.25 -2.61 -3.25 -2.61 0 0 Z " fill="#EEE7D8" transform="translate(942.25,630.8125)"/>
<path d="M0 0 C2 2 2 2 3.5 5.56 C12.23 23.06 36.58 29.02 53.61 34.9 C55.36 35.51 57.11 36.12 58.85 36.73 C60.49 37.31 62.13 37.88 63.77 38.43 C69.89 40.6 73.35 43.53 77 49 C77.45 53.04 77.42 55.27 75.38 58.81 C70.67 63.15 65.16 63.36 59 63.31 C58.25 63.31 57.51 63.3 56.74 63.3 C39.79 62.93 24.6 56.87 10.71 47.54 C7.94 45.67 7.94 45.67 4 46 C1.36 50.62 -1.28 55.24 -4 60 C-6 58 -6 58 -6.04 55.02 C-5.95 53.77 -5.85 52.53 -5.76 51.24 C-5.71 50.58 -5.66 49.92 -5.61 49.23 C-5.46 47.11 -5.29 44.99 -5.12 42.88 C-5.02 41.44 -4.91 40 -4.81 38.57 C-4.55 35.04 -4.28 31.52 -4 28 C-3.34 28 -2.68 28 -2 28 C-1.94 26.9 -1.88 25.8 -1.82 24.67 C-1.35 16.43 -0.83 8.21 0 0 Z " fill="#FDAB0E" transform="translate(409,739)"/>
<path d="M0 0 C4.48 -0.09 8.96 -0.14 13.44 -0.19 C14.7 -0.21 15.96 -0.24 17.26 -0.26 C25.29 -0.33 32.74 -0.32 39.3 4.8 C45.02 11.91 47.69 17.74 47.4 27 C46.61 32.87 44.33 37.03 39.8 40.85 C33.89 44.97 29.73 46.13 22.52 46.13 C21.27 46.13 20.03 46.14 18.74 46.14 C17.45 46.13 16.15 46.13 14.81 46.12 C12.85 46.13 12.85 46.13 10.85 46.14 C8.98 46.13 8.98 46.13 7.08 46.13 C5.94 46.13 4.8 46.13 3.62 46.13 C1 46 1 46 0 45 C-0.09 43.59 -0.12 42.17 -0.11 40.76 C-0.11 39.85 -0.11 38.95 -0.11 38.03 C-0.11 37.05 -0.1 36.07 -0.1 35.06 C-0.1 34.06 -0.09 33.06 -0.09 32.04 C-0.09 28.84 -0.08 25.64 -0.06 22.44 C-0.06 20.27 -0.05 18.11 -0.05 15.95 C-0.04 10.63 -0.02 5.32 0 0 Z " fill="#FAFCFC" transform="translate(870,925)"/>
<path d="M0 0 C9.39 -1 9.39 -1 12.95 1.22 C14.6 2.93 15.99 4.69 17.38 6.62 C17.86 7.24 18.34 7.86 18.83 8.5 C19.78 9.72 20.72 10.95 21.65 12.2 C25.21 17.29 25.21 17.29 30 21 C30.33 14.07 30.66 7.14 31 0 C41.75 -0.12 41.75 -0.12 44 1 C44 15.85 44 30.7 44 46 C34 46 34 46 31.29 43.98 C30.53 42.99 29.78 42.01 29 41 C27.93 39.77 26.85 38.55 25.77 37.34 C24.64 36.02 23.51 34.7 22.38 33.38 C21.24 32.05 20.1 30.72 18.96 29.4 C18.46 28.82 17.97 28.24 17.45 27.64 C16.03 26.04 14.52 24.52 13 23 C13 30.59 13 38.18 13 46 C9.37 46 5.74 46 2 46 C0 44 0 44 -0.24 42.09 C-0.24 41.31 -0.23 40.53 -0.23 39.73 C-0.23 38.85 -0.23 37.97 -0.23 37.06 C-0.22 36.11 -0.21 35.16 -0.2 34.18 C-0.19 33.21 -0.19 32.23 -0.19 31.23 C-0.18 28.11 -0.15 24.99 -0.12 21.88 C-0.11 19.76 -0.11 17.65 -0.1 15.54 C-0.08 10.36 -0.04 5.18 0 0 Z " fill="#FAFCFC" transform="translate(775,926)"/>
<path d="M0 0 C4.29 0 8.58 0 13 0 C17.05 7.88 20.86 15.8 24.36 23.93 C26.75 29.47 29.28 34.94 31.87 40.39 C34 44.9 34 44.9 34 46 C32.08 46.11 30.17 46.19 28.25 46.25 C27.18 46.3 26.12 46.34 25.02 46.39 C21.28 45.91 20.28 44.94 18 42 C17.34 40.68 16.68 39.36 16 38 C10.06 38 4.12 38 -2 38 C-3.32 40.64 -4.64 43.28 -6 46 C-9.96 46 -13.92 46 -18 46 C-17.4 40.41 -15.4 35.77 -13.18 30.66 C-12.81 29.78 -12.43 28.91 -12.04 28 C-10.85 25.21 -9.64 22.42 -8.44 19.62 C-7.62 17.73 -6.81 15.83 -5.99 13.93 C-4 9.28 -2 4.64 0 0 Z " fill="#FAFCFC" transform="translate(590,928)"/>
<path d="M0 0 C2.28 -0 4.56 -0.02 6.83 -0.04 C8.28 -0.04 9.72 -0.04 11.16 -0.05 C13.14 -0.05 13.14 -0.05 15.15 -0.06 C18.29 0.19 18.29 0.19 20.29 2.19 C20.29 4.83 20.29 7.47 20.29 10.19 C12.7 10.52 5.11 10.85 -2.71 11.19 C-2.38 13.17 -2.05 15.15 -1.71 17.19 C-0.51 17.25 0.7 17.31 1.94 17.37 C3.51 17.45 5.09 17.54 6.66 17.62 C7.46 17.66 8.25 17.7 9.07 17.74 C15.06 18.07 15.06 18.07 17.29 19.19 C17.29 22.16 17.29 25.13 17.29 28.19 C11.02 28.52 4.75 28.85 -1.71 29.19 C-1.71 31.17 -1.71 33.15 -1.71 35.19 C-0.72 36.4 -0.72 36.4 1.2 36.27 C2.02 36.25 2.84 36.23 3.69 36.21 C4.58 36.2 5.47 36.19 6.39 36.18 C8.27 36.14 10.16 36.1 12.05 36.06 C12.94 36.05 13.83 36.04 14.75 36.03 C15.98 36 15.98 36 17.24 35.97 C19.29 36.19 19.29 36.19 21.29 38.19 C21.61 40.9 21.42 43.44 21.29 46.19 C20.29 47.19 20.29 47.19 16.96 47.3 C15.48 47.3 14.01 47.29 12.53 47.28 C11.76 47.28 10.98 47.28 10.18 47.28 C7.7 47.27 5.21 47.26 2.72 47.25 C1.04 47.24 -0.64 47.24 -2.32 47.23 C-6.45 47.22 -10.58 47.21 -14.71 47.19 C-15.88 44.86 -15.83 43.51 -15.83 40.92 C-15.83 40.04 -15.83 39.16 -15.83 38.25 C-15.82 37.3 -15.82 36.35 -15.81 35.36 C-15.81 34.39 -15.81 33.42 -15.81 32.41 C-15.8 29.3 -15.79 26.18 -15.78 23.06 C-15.77 20.95 -15.77 18.84 -15.76 16.73 C-15.75 11.55 -15.73 6.37 -15.71 1.19 C-11.21 -1.07 -5.01 -0 0 0 Z " fill="#FAFCFC" transform="translate(842.712890625,924.814697265625)"/>
<path d="M0 0 C0.9 0.01 1.79 0.03 2.71 0.04 C4.06 0.05 4.06 0.05 5.44 0.06 C7.65 0.23 7.65 0.23 8.65 1.23 C8.88 3.5 9.05 5.77 9.19 8.04 C9.23 8.72 9.27 9.4 9.32 10.11 C9.45 12.29 9.58 14.48 9.71 16.67 C9.81 18.14 9.9 19.61 9.99 21.08 C10.65 31.76 10.65 31.76 10.65 34.23 C16.67 36.18 16.67 36.18 22.65 34.98 C25.34 32.63 25.62 31.76 25.86 28.16 C25.89 26.87 25.93 25.58 25.97 24.25 C25.99 23.57 26.01 22.88 26.03 22.18 C26.1 19.99 26.16 17.8 26.21 15.61 C26.26 14.12 26.3 12.64 26.35 11.15 C26.45 7.51 26.55 3.87 26.65 0.23 C28.44 0.18 30.24 0.14 32.03 0.11 C33.03 0.08 34.02 0.06 35.05 0.04 C37.65 0.23 37.65 0.23 39.65 2.23 C40.05 6.42 39.98 10.61 39.97 14.81 C39.96 16.89 39.99 18.97 40.01 21.05 C40.02 22.38 40.02 23.72 40.02 25.05 C40.02 26.26 40.02 27.47 40.02 28.71 C39.32 35.33 36.75 39.86 31.65 44.23 C26.24 48.02 21.19 48.77 14.65 48.23 C8.38 46.4 3.23 43.92 -1.35 39.23 C-3.46 35.11 -3.68 31.41 -3.83 26.81 C-3.86 26.11 -3.88 25.42 -3.91 24.7 C-3.95 23.23 -4 21.76 -4.04 20.29 C-4.1 18.04 -4.18 15.79 -4.27 13.54 C-4.31 12.11 -4.35 10.68 -4.39 9.25 C-4.43 7.95 -4.47 6.65 -4.51 5.32 C-4.31 1.6 -3.82 0.37 0 0 Z " fill="#FAFCFC" transform="translate(728.34765625,925.76953125)"/>
<path d="M0 0 C2 3 2 3 1.81 6 C1 9.01 0.4 10.12 -2 12 C-2.69 11.67 -3.39 11.35 -4.11 11.01 C-7.36 9.87 -9.87 9.8 -13.31 9.88 C-14.38 9.89 -15.45 9.91 -16.55 9.93 C-17.76 9.96 -17.76 9.96 -19 10 C-19.33 11.32 -19.66 12.64 -20 14 C-15.43 15.81 -11.03 17.25 -6.25 18.38 C-2.58 19.34 -1.21 19.79 1.56 22.5 C2.04 23.33 2.51 24.15 3 25 C3.66 25.99 4.32 26.98 5 28 C5.46 32.65 5.47 35.03 3.44 39.25 C-1.09 44.35 -6.15 46.61 -12.92 47.16 C-20.36 47.47 -27.01 45.33 -34 43 C-33.49 39.28 -32.88 36.27 -31 33 C-27.88 33.49 -25 34 -22 35 C-19.94 35.07 -17.87 35.08 -15.81 35.06 C-14.73 35.05 -13.64 35.04 -12.52 35.04 C-11.69 35.02 -10.86 35.01 -10 35 C-10 33.68 -10 32.36 -10 31 C-10 30.34 -10 29.68 -10 29 C-10.77 28.9 -11.55 28.8 -12.34 28.7 C-20.24 27.57 -26.49 26.16 -32.5 20.75 C-34.48 17.11 -34.64 14.01 -34 10 C-32.2 4.8 -29.84 2.55 -25 0 C-17.07 -2.89 -7.93 -3.08 0 0 Z " fill="#FAFCFC" transform="translate(529,929)"/>
<path d="M0 0 C1.02 2.01 2.01 4.04 3 6.06 C3.56 7.19 4.11 8.31 4.69 9.47 C6.09 13.25 6.32 16 6 20 C4.33 21.67 2.33 21.15 0.03 21.15 C-8.18 21.08 -16.31 20.3 -24.47 19.54 C-26.13 19.39 -27.79 19.23 -29.44 19.08 C-32.89 18.77 -36.34 18.44 -39.78 18.12 C-44.2 17.7 -48.62 17.3 -53.04 16.9 C-56.45 16.59 -59.86 16.27 -63.27 15.96 C-64.9 15.8 -66.53 15.65 -68.16 15.51 C-70.43 15.3 -72.7 15.09 -74.97 14.87 C-76.25 14.75 -77.54 14.63 -78.87 14.51 C-82 14 -82 14 -85 12 C-85 10.68 -85 9.36 -85 8 C-74.55 6.64 -64.11 5.47 -53.61 4.49 C-52.21 4.36 -50.81 4.23 -49.41 4.1 C-46.52 3.83 -43.62 3.55 -40.72 3.29 C-37.02 2.94 -33.32 2.59 -29.62 2.24 C-26.74 1.97 -23.87 1.7 -20.99 1.44 C-19.62 1.31 -18.26 1.18 -16.89 1.05 C-14.99 0.87 -13.09 0.69 -11.19 0.52 C-10.11 0.42 -9.03 0.32 -7.92 0.21 C-5.27 0.02 -2.66 -0.04 0 0 Z " fill="#7C8892" transform="translate(757,645)"/>
<path d="M0 0 C4.15 -0.61 7.87 -0.85 12 0 C15.18 2.9 17.02 6.22 19 10 C21.03 14.1 21.03 14.1 25 16 C25.64 14.93 26.28 13.86 26.93 12.75 C27.77 11.36 28.6 9.96 29.44 8.56 C29.86 7.86 30.28 7.15 30.71 6.42 C33.89 1.11 33.89 1.11 35 0 C36.64 -0.12 38.29 -0.18 39.94 -0.19 C40.83 -0.2 41.73 -0.22 42.65 -0.23 C45 0 45 0 47 2 C45.92 3.85 44.83 5.69 43.75 7.53 C42.83 9.11 41.91 10.68 41 12.26 C39.11 15.51 37.24 18.67 35.04 21.72 C29.52 29.37 30.02 37.89 30 47 C28.21 47.05 26.42 47.09 24.62 47.12 C23.63 47.15 22.63 47.17 21.6 47.2 C19 47 19 47 17 45 C16.9 42.76 16.87 40.51 16.88 38.27 C16.57 29.22 12.81 23.15 7.94 15.75 C6.8 13.96 5.66 12.17 4.53 10.37 C3.52 8.76 2.49 7.17 1.45 5.58 C0 3 0 3 0 0 Z " fill="#FAFCFC" transform="translate(618,927)"/>
<path d="M0 0 C5.52 -0.02 11.04 -0.04 16.55 -0.05 C18.43 -0.06 20.31 -0.07 22.19 -0.08 C24.88 -0.09 27.58 -0.09 30.27 -0.1 C31.12 -0.1 31.96 -0.11 32.83 -0.11 C38.77 -0.11 38.77 -0.11 41 1 C41 3.97 41 6.94 41 10 C36.38 10.33 31.76 10.66 27 11 C27 22.55 27 34.1 27 46 C23.04 46 19.08 46 15 46 C13.53 43.06 13.8 40.37 13.72 37.09 C13.69 36.07 13.69 36.07 13.66 35.03 C13.58 32.12 13.52 29.2 13.45 26.29 C13.4 24.16 13.34 22.03 13.28 19.91 C13.25 18.63 13.22 17.36 13.19 16.04 C13.2 13.08 13.2 13.08 12 11 C10.84 11.03 10.84 11.03 9.66 11.07 C8.66 11.09 7.66 11.11 6.62 11.12 C5.63 11.15 4.63 11.17 3.6 11.2 C1 11 1 11 -1 9 C-1.34 2.68 -1.34 2.68 0 0 Z " fill="#FAFCFC" transform="translate(534,928)"/>
<path d="M0 0 C0.14 3 0.04 5.99 0 9 C-6.43 9.5 -6.43 9.5 -13 10 C-13.33 21.55 -13.66 33.1 -14 45 C-17.96 45 -21.92 45 -26 45 C-27.53 41.95 -27.24 38.72 -27.32 35.37 C-27.34 34.62 -27.36 33.86 -27.38 33.09 C-27.44 30.68 -27.5 28.28 -27.56 25.88 C-27.61 24.25 -27.65 22.62 -27.69 20.99 C-27.8 16.99 -27.9 13 -28 9 C-31.96 9 -35.92 9 -40 9 C-41.61 5.79 -41.06 2.56 -41 -1 C-36.11 -1.17 -31.21 -1.33 -26.32 -1.48 C-24.66 -1.54 -22.99 -1.59 -21.33 -1.65 C-18.94 -1.73 -16.54 -1.81 -14.14 -1.88 C-13.03 -1.92 -13.03 -1.92 -11.9 -1.96 C-2.24 -2.24 -2.24 -2.24 0 0 Z " fill="#FAFCFC" transform="translate(722,928)"/>
<path d="M0 0 C3.89 2.25 5.36 3.8 7.25 7.88 C8.11 11.97 8.18 15.31 6 18.97 C3.54 21.97 1.98 23.63 -1.75 24.88 C-3.43 24.99 -5.12 25.05 -6.81 25.06 C-8.13 25.08 -8.13 25.08 -9.47 25.11 C-11.75 24.88 -11.75 24.88 -13.75 22.88 C-13.98 20.54 -13.98 20.54 -13.95 17.65 C-13.94 16.62 -13.93 15.59 -13.93 14.52 C-13.91 13.44 -13.89 12.36 -13.88 11.25 C-13.87 10.16 -13.86 9.07 -13.85 7.95 C-13.82 5.26 -13.79 2.57 -13.75 -0.12 C-9.32 -2.34 -4.53 -1.36 0 0 Z " fill="#00264D" transform="translate(896.75,936.125)"/>
<path d="M0 0 C0.74 0 1.48 0 2.25 0 C8.22 0.07 14.12 0.47 20.06 1.06 C20.89 1.14 21.72 1.22 22.58 1.3 C24.58 1.52 26.58 1.84 28.56 2.19 C29.06 3.18 29.06 3.18 29.56 4.19 C15.58 5.5 1.59 5.29 -12.44 5.19 C-11.78 4.86 -11.12 4.53 -10.44 4.19 C-10.11 3.2 -9.78 2.21 -9.44 1.19 C-6.42 -0.32 -3.31 -0 0 0 Z " fill="#EEE7D8" transform="translate(694.4375,903.8125)"/>
<path d="M0 0 C-0.66 4.29 -1.32 8.58 -2 13 C-3.32 13.33 -4.64 13.66 -6 14 C-10.78 10.39 -12.23 6.51 -14 1 C-12.04 0.64 -10.08 0.29 -8.12 -0.06 C-7.03 -0.26 -5.94 -0.46 -4.82 -0.66 C-2 -1 -2 -1 0 0 Z " fill="#7C8891" transform="translate(415,677)"/>
<path d="M0 0 C3.18 2.93 4.48 5.95 6 10 C6 10.99 6 11.98 6 13 C3.03 13 0.06 13 -3 13 C-4 11 -4 11 -3.22 8.4 C-2.84 7.4 -2.46 6.4 -2.06 5.38 C-1.68 4.37 -1.3 3.37 -0.91 2.34 C-0.61 1.57 -0.31 0.79 0 0 Z " fill="#00264D" transform="translate(596,942)"/>
<path d="M0 0 C0.33 1.65 0.66 3.3 1 5 C-1.94 4.89 -4.88 4.76 -7.81 4.62 C-9.06 4.58 -9.06 4.58 -10.34 4.53 C-11.14 4.49 -11.94 4.45 -12.77 4.41 C-13.88 4.37 -13.88 4.37 -15.01 4.32 C-17 4 -17 4 -20 2 C-16.38 -1.62 -4.98 -0.09 0 0 Z " fill="#425467" transform="translate(671,653)"/>
<path d="M0 0 C1.32 0 2.64 0 4 0 C6 3 6 3 5.62 5.19 C5.42 5.79 5.21 6.38 5 7 C3.19 7.62 3.19 7.62 1 8 C0.01 7.34 -0.98 6.68 -2 6 C-1.12 1.12 -1.12 1.12 0 0 Z " fill="#00264D" transform="translate(285,426)"/>
<path d="M0 0 C1.32 0 2.64 0 4 0 C6 3 6 3 5.62 5.19 C5.42 5.79 5.21 6.38 5 7 C3.19 7.62 3.19 7.62 1 8 C0.01 7.34 -0.98 6.68 -2 6 C-1.12 1.12 -1.12 1.12 0 0 Z " fill="#00264D" transform="translate(386,417)"/>
<path d="M0 0 C1.32 0 2.64 0 4 0 C6 3 6 3 5.62 5.19 C5.42 5.79 5.21 6.38 5 7 C3.19 7.62 3.19 7.62 1 8 C0.01 7.34 -0.98 6.68 -2 6 C-1.12 1.12 -1.12 1.12 0 0 Z " fill="#00264D" transform="translate(411,415)"/>
<path d="M0 0 C1.32 0 2.64 0 4 0 C6 3 6 3 5.62 5.19 C5.42 5.79 5.21 6.38 5 7 C3.19 7.62 3.19 7.62 1 8 C0.01 7.34 -0.98 6.68 -2 6 C-1.12 1.12 -1.12 1.12 0 0 Z " fill="#00264D" transform="translate(512,406)"/>
<path d="M0 0 C1.32 0 2.64 0 4 0 C6 3 6 3 5.62 5.19 C5.42 5.79 5.21 6.38 5 7 C3.19 7.62 3.19 7.62 1 8 C0.01 7.34 -0.98 6.68 -2 6 C-1.12 1.12 -1.12 1.12 0 0 Z " fill="#00264D" transform="translate(1096,404)"/>
<path d="M0 0 C1.32 0 2.64 0 4 0 C6 3 6 3 5.62 5.19 C5.42 5.79 5.21 6.38 5 7 C3.19 7.62 3.19 7.62 1 8 C0.01 7.34 -0.98 6.68 -2 6 C-1.12 1.12 -1.12 1.12 0 0 Z " fill="#00264D" transform="translate(283,401)"/>
<path d="M0 0 C1.32 0 2.64 0 4 0 C6 3 6 3 5.62 5.19 C5.42 5.79 5.21 6.38 5 7 C3.19 7.62 3.19 7.62 1 8 C0.01 7.34 -0.98 6.68 -2 6 C-1.12 1.12 -1.12 1.12 0 0 Z " fill="#00264D" transform="translate(764,383)"/>
<path d="M0 0 C1.32 0 2.64 0 4 0 C6 3 6 3 5.62 5.19 C5.42 5.79 5.21 6.38 5 7 C3.19 7.62 3.19 7.62 1 8 C0.01 7.34 -0.98 6.68 -2 6 C-1.12 1.12 -1.12 1.12 0 0 Z " fill="#00264D" transform="translate(789,381)"/>
<path d="M0 0 C1.32 0 2.64 0 4 0 C6 3 6 3 5.62 5.19 C5.42 5.79 5.21 6.38 5 7 C3.19 7.62 3.19 7.62 1 8 C0.01 7.34 -0.98 6.68 -2 6 C-1.12 1.12 -1.12 1.12 0 0 Z " fill="#00264D" transform="translate(1094,379)"/>
<path d="M0 0 C1.32 0 2.64 0 4 0 C6 3 6 3 5.62 5.19 C5.42 5.79 5.21 6.38 5 7 C3.19 7.62 3.19 7.62 1 8 C0.01 7.34 -0.98 6.68 -2 6 C-1.12 1.12 -1.12 1.12 0 0 Z " fill="#00264D" transform="translate(560,376)"/>
<path d="M0 0 C1.32 0 2.64 0 4 0 C6 3 6 3 5.62 5.19 C5.42 5.79 5.21 6.38 5 7 C3.19 7.62 3.19 7.62 1 8 C0.01 7.34 -0.98 6.68 -2 6 C-1.12 1.12 -1.12 1.12 0 0 Z " fill="#00264D" transform="translate(432,362)"/>
<path d="M0 0 C1.32 0 2.64 0 4 0 C6 3 6 3 5.62 5.19 C5.42 5.79 5.21 6.38 5 7 C3.19 7.62 3.19 7.62 1 8 C0.01 7.34 -0.98 6.68 -2 6 C-1.12 1.12 -1.12 1.12 0 0 Z " fill="#00264D" transform="translate(228,355)"/>
<path d="M0 0 C1.32 0 2.64 0 4 0 C6 3 6 3 5.62 5.19 C5.42 5.79 5.21 6.38 5 7 C3.19 7.62 3.19 7.62 1 8 C0.01 7.34 -0.98 6.68 -2 6 C-1.12 1.12 -1.12 1.12 0 0 Z " fill="#00264D" transform="translate(558,351)"/>
<path d="M0 0 C1.32 0 2.64 0 4 0 C6 3 6 3 5.62 5.19 C5.42 5.79 5.21 6.38 5 7 C3.19 7.62 3.19 7.62 1 8 C0.01 7.34 -0.98 6.68 -2 6 C-1.12 1.12 -1.12 1.12 0 0 Z " fill="#00264D" transform="translate(354,344)"/>
<path d="M0 0 C1.32 0 2.64 0 4 0 C6 3 6 3 5.62 5.19 C5.42 5.79 5.21 6.38 5 7 C3.19 7.62 3.19 7.62 1 8 C0.01 7.34 -0.98 6.68 -2 6 C-1.12 1.12 -1.12 1.12 0 0 Z " fill="#00264D" transform="translate(938,342)"/>
<path d="M0 0 C1.32 0 2.64 0 4 0 C6 3 6 3 5.62 5.19 C5.42 5.79 5.21 6.38 5 7 C3.19 7.62 3.19 7.62 1 8 C0.01 7.34 -0.98 6.68 -2 6 C-1.12 1.12 -1.12 1.12 0 0 Z " fill="#00264D" transform="translate(1039,333)"/>
<path d="M0 0 C1.32 0 2.64 0 4 0 C6 3 6 3 5.62 5.19 C5.42 5.79 5.21 6.38 5 7 C3.19 7.62 3.19 7.62 1 8 C0.01 7.34 -0.98 6.68 -2 6 C-1.12 1.12 -1.12 1.12 0 0 Z " fill="#00264D" transform="translate(835,326)"/>
<path d="M0 0 C1.32 0 2.64 0 4 0 C6 3 6 3 5.62 5.19 C5.42 5.79 5.21 6.38 5 7 C3.19 7.62 3.19 7.62 1 8 C0.01 7.34 -0.98 6.68 -2 6 C-1.12 1.12 -1.12 1.12 0 0 Z " fill="#00264D" transform="translate(606,321)"/>
<path d="M0 0 C1.32 0 2.64 0 4 0 C6 3 6 3 5.62 5.19 C5.42 5.79 5.21 6.38 5 7 C3.19 7.62 3.19 7.62 1 8 C0.01 7.34 -0.98 6.68 -2 6 C-1.12 1.12 -1.12 1.12 0 0 Z " fill="#00264D" transform="translate(631,319)"/>
<path d="M0 0 C1.32 0 2.64 0 4 0 C6 3 6 3 5.62 5.19 C5.42 5.79 5.21 6.38 5 7 C3.19 7.62 3.19 7.62 1 8 C0.01 7.34 -0.98 6.68 -2 6 C-1.12 1.12 -1.12 1.12 0 0 Z " fill="#00264D" transform="translate(936,317)"/>
<path d="M0 0 C1.32 0 2.64 0 4 0 C6 3 6 3 5.62 5.19 C5.42 5.79 5.21 6.38 5 7 C3.19 7.62 3.19 7.62 1 8 C0.01 7.34 -0.98 6.68 -2 6 C-1.12 1.12 -1.12 1.12 0 0 Z " fill="#00264D" transform="translate(402,314)"/>
<path d="M0 0 C1.32 0 2.64 0 4 0 C6 3 6 3 5.62 5.19 C5.42 5.79 5.21 6.38 5 7 C3.19 7.62 3.19 7.62 1 8 C0.01 7.34 -0.98 6.68 -2 6 C-1.12 1.12 -1.12 1.12 0 0 Z " fill="#00264D" transform="translate(984,287)"/>
<path d="M0 0 C1.32 0 2.64 0 4 0 C6 3 6 3 5.62 5.19 C5.42 5.79 5.21 6.38 5 7 C3.19 7.62 3.19 7.62 1 8 C0.01 7.34 -0.98 6.68 -2 6 C-1.12 1.12 -1.12 1.12 0 0 Z " fill="#00264D" transform="translate(1009,285)"/>
<path d="M0 0 C1.32 0 2.64 0 4 0 C6 3 6 3 5.62 5.19 C5.42 5.79 5.21 6.38 5 7 C3.19 7.62 3.19 7.62 1 8 C0.01 7.34 -0.98 6.68 -2 6 C-1.12 1.12 -1.12 1.12 0 0 Z " fill="#00264D" transform="translate(780,280)"/>
<path d="M0 0 C1.32 0 2.64 0 4 0 C6 3 6 3 5.62 5.19 C5.42 5.79 5.21 6.38 5 7 C3.19 7.62 3.19 7.62 1 8 C0.01 7.34 -0.98 6.68 -2 6 C-1.12 1.12 -1.12 1.12 0 0 Z " fill="#00264D" transform="translate(881,271)"/>
<path d="M0 0 C2 3 2 3 1.62 5.19 C1.42 5.79 1.21 6.38 1 7 C-0.81 7.62 -0.81 7.62 -3 8 C-3.99 7.34 -4.98 6.68 -6 6 C-5.62 3.56 -5.62 3.56 -5 1 C-3 0 -3 0 0 0 Z " fill="#00264D" transform="translate(491,408)"/>
<path d="M0 0 C1.21 0.03 1.21 0.03 2.44 0.06 C3.1 1.71 3.76 3.36 4.44 5.06 C3.45 6.05 2.46 7.04 1.44 8.06 C-1.04 7.07 -1.04 7.07 -3.56 6.06 C-3.61 4.4 -3.6 2.73 -3.56 1.06 C-2.56 0.06 -2.56 0.06 0 0 Z " fill="#00264D" transform="translate(282.5625,375.9375)"/>
<path d="M0 0 C2 3 2 3 1.62 5.19 C1.42 5.79 1.21 6.38 1 7 C-0.81 7.62 -0.81 7.62 -3 8 C-3.99 7.34 -4.98 6.68 -6 6 C-5.62 3.56 -5.62 3.56 -5 1 C-3 0 -3 0 0 0 Z " fill="#00264D" transform="translate(869,374)"/>
<path d="M0 0 C1.32 0 2.64 0 4 0 C6 3 6 3 5.62 5.19 C5.42 5.79 5.21 6.38 5 7 C3.19 7.62 3.19 7.62 1 8 C0.01 7.34 -0.98 6.68 -2 6 C-1.12 1.12 -1.12 1.12 0 0 Z " fill="#00264D" transform="translate(890,372)"/>
<path d="M0 0 C2 3 2 3 1.62 5.19 C1.42 5.79 1.21 6.38 1 7 C-0.81 7.62 -0.81 7.62 -3 8 C-3.99 7.34 -4.98 6.68 -6 6 C-5.62 3.56 -5.62 3.56 -5 1 C-3 0 -3 0 0 0 Z " fill="#00264D" transform="translate(335,371)"/>
<path d="M0 0 C1.32 0 2.64 0 4 0 C6 3 6 3 5.62 5.19 C5.42 5.79 5.21 6.38 5 7 C3.19 7.62 3.19 7.62 1 8 C0.01 7.34 -0.98 6.68 -2 6 C-1.12 1.12 -1.12 1.12 0 0 Z " fill="#00264D" transform="translate(356,369)"/>
<path d="M0 0 C2 3 2 3 1.62 5.19 C1.42 5.79 1.21 6.38 1 7 C-0.81 7.62 -0.81 7.62 -3 8 C-3.99 7.34 -4.98 6.68 -6 6 C-5.62 3.56 -5.62 3.56 -5 1 C-3 0 -3 0 0 0 Z " fill="#00264D" transform="translate(665,367)"/>
<path d="M0 0 C1.32 0 2.64 0 4 0 C6 3 6 3 5.62 5.19 C5.42 5.79 5.21 6.38 5 7 C3.19 7.62 3.19 7.62 1 8 C0.01 7.34 -0.98 6.68 -2 6 C-1.12 1.12 -1.12 1.12 0 0 Z " fill="#00264D" transform="translate(457,360)"/>
<path d="M0 0 C1.68 0.29 3.34 0.62 5 1 C5.33 2.65 5.66 4.3 6 6 C4.02 6.99 4.02 6.99 2 8 C0.68 7.01 -0.64 6.02 -2 5 C-1.12 1.12 -1.12 1.12 0 0 Z " fill="#00264D" transform="translate(482,358)"/>
<path d="M0 0 C2 3 2 3 1.62 5.19 C1.42 5.79 1.21 6.38 1 7 C-0.81 7.62 -0.81 7.62 -3 8 C-3.99 7.34 -4.98 6.68 -6 6 C-5.62 3.56 -5.62 3.56 -5 1 C-3 0 -3 0 0 0 Z " fill="#00264D" transform="translate(333,346)"/>
<path d="M0 0 C1.32 0 2.64 0 4 0 C6 3 6 3 5.62 5.19 C5.42 5.79 5.21 6.38 5 7 C3.19 7.62 3.19 7.62 1 8 C0.01 7.34 -0.98 6.68 -2 6 C-1.12 1.12 -1.12 1.12 0 0 Z " fill="#00264D" transform="translate(734,335)"/>
<path d="M0 0 C2.9 0.47 3.87 0.87 6 3 C5.62 5.12 5.62 5.12 5 7 C3.19 7.62 3.19 7.62 1 8 C0.01 7.34 -0.98 6.68 -2 6 C-1.12 1.12 -1.12 1.12 0 0 Z " fill="#00264D" transform="translate(810,328)"/>
<path d="M0 0 C1.68 0.29 3.34 0.62 5 1 C5.33 2.65 5.66 4.3 6 6 C4.02 6.99 4.02 6.99 2 8 C0.68 7.01 -0.64 6.02 -2 5 C-1.12 1.12 -1.12 1.12 0 0 Z " fill="#00264D" transform="translate(860,324)"/>
<path d="M0 0 C2 3 2 3 1.62 5.19 C1.42 5.79 1.21 6.38 1 7 C-0.81 7.62 -0.81 7.62 -3 8 C-3.99 7.34 -4.98 6.68 -6 6 C-5.62 3.56 -5.62 3.56 -5 1 C-3 0 -3 0 0 0 Z " fill="#00264D" transform="translate(711,312)"/>
<path d="M0 0 C1.32 0 2.64 0 4 0 C6 3 6 3 5.62 5.19 C5.42 5.79 5.21 6.38 5 7 C3.19 7.62 3.19 7.62 1 8 C0.01 7.34 -0.98 6.68 -2 6 C-1.12 1.12 -1.12 1.12 0 0 Z " fill="#00264D" transform="translate(732,310)"/>
<path d="M0 0 C2 3 2 3 1.62 5.19 C1.42 5.79 1.21 6.38 1 7 C-0.81 7.62 -0.81 7.62 -3 8 C-3.99 7.34 -4.98 6.68 -6 6 C-5.62 3.56 -5.62 3.56 -5 1 C-3 0 -3 0 0 0 Z " fill="#00264D" transform="translate(507,305)"/>
<path d="M0 0 C1.32 0 2.64 0 4 0 C6 3 6 3 5.62 5.19 C5.42 5.79 5.21 6.38 5 7 C3.19 7.62 3.19 7.62 1 8 C0.01 7.34 -0.98 6.68 -2 6 C-1.12 1.12 -1.12 1.12 0 0 Z " fill="#00264D" transform="translate(1112,301)"/>
<path d="M0 0 C1.32 0 2.64 0 4 0 C6 3 6 3 5.62 5.19 C5.42 5.79 5.21 6.38 5 7 C3.19 7.62 3.19 7.62 1 8 C0.01 7.34 -0.98 6.68 -2 6 C-1.12 1.12 -1.12 1.12 0 0 Z " fill="#00264D" transform="translate(1110,276)"/>
<path d="M0 0 C1.32 0 2.64 0 4 0 C5.12 2.31 5.12 2.31 6 5 C5.01 6.49 5.01 6.49 4 8 C1.83 7.49 0 7 -2 6 C-1.12 1.12 -1.12 1.12 0 0 Z " fill="#00264D" transform="translate(384,392)"/>
<path d="M0 0 C1.32 0 2.64 0 4 0 C4.66 1.65 5.32 3.3 6 5 C5.01 5.99 4.02 6.98 3 8 C0.52 7.01 0.52 7.01 -2 6 C-1.12 1.12 -1.12 1.12 0 0 Z " fill="#00264D" transform="translate(991,363)"/>
<path d="M0 0 C1.32 0 2.64 0 4 0 C5.12 2.31 5.12 2.31 6 5 C5.01 6.49 5.01 6.49 4 8 C1.83 7.49 0 7 -2 6 C-1.12 1.12 -1.12 1.12 0 0 Z " fill="#00264D" transform="translate(762,358)"/>
<path d="M0 0 C1.32 0 2.64 0 4 0 C6 3 6 3 5.81 5.12 C5.54 5.74 5.28 6.36 5 7 C4.01 7.33 3.02 7.66 2 8 C-0.19 6.56 -0.19 6.56 -2 5 C-1.12 1.12 -1.12 1.12 0 0 Z " fill="#00264D" transform="translate(253,353)"/>
<path d="M0 0 C2 3 2 3 1.62 5.19 C1.42 5.79 1.21 6.38 1 7 C-0.81 7.62 -0.81 7.62 -3 8 C-3.99 7.34 -4.98 6.68 -6 6 C-5.62 3.56 -5.62 3.56 -5 1 C-3 0 -3 0 0 0 Z " fill="#00264D" transform="translate(713,337)"/>
<path d="M0 0 C1.32 0 2.64 0 4 0 C6 3 6 3 5.81 5.12 C5.54 5.74 5.28 6.36 5 7 C2 8 2 8 -0.19 7.06 C-0.79 6.71 -1.38 6.36 -2 6 C-1.12 1.12 -1.12 1.12 0 0 Z " fill="#00264D" transform="translate(1064,331)"/>
<path d="M0 0 C2.06 0.69 2.06 0.69 4 2 C4.88 4 4.88 4 5 6 C4.34 6.66 3.68 7.32 3 8 C0.74 7.65 -0.95 7.02 -3 6 C-2.62 3.56 -2.62 3.56 -2 1 C-1.34 0.67 -0.68 0.34 0 0 Z " fill="#00264D" transform="translate(378,316)"/>
<path d="M0 0 C1.65 0.33 3.3 0.66 5 1 C5.33 2.65 5.66 4.3 6 6 C4.02 6.99 4.02 6.99 2 8 C0.68 6.68 -0.64 5.36 -2 4 C-1.34 2.68 -0.68 1.36 0 0 Z " fill="#00264D" transform="translate(427,312)"/>
<path d="M0 0 C1.94 0.12 1.94 0.12 4 1 C5.25 3.56 5.25 3.56 6 6 C5.34 6.66 4.68 7.32 4 8 C1.74 7.65 0.05 7.02 -2 6 C-1.12 1.12 -1.12 1.12 0 0 Z " fill="#00264D" transform="translate(478,307)"/>
<path d="M0 0 C1.32 0 2.64 0 4 0 C4.66 1.65 5.32 3.3 6 5 C5.01 5.99 4.02 6.98 3 8 C0.52 7.01 0.52 7.01 -2 6 C-1.12 1.12 -1.12 1.12 0 0 Z " fill="#00264D" transform="translate(833,301)"/>
<path d="M0 0 C1.32 0 2.64 0 4 0 C5.12 2.31 5.12 2.31 6 5 C5.01 6.49 5.01 6.49 4 8 C1.83 7.49 0 7 -2 6 C-1.12 1.12 -1.12 1.12 0 0 Z " fill="#00264D" transform="translate(604,296)"/>
<path d="M0 0 C0.66 1.98 1.32 3.96 2 6 C1.34 6.66 0.68 7.32 0 8 C-2.26 7.65 -3.95 7.02 -6 6 C-5.62 3.56 -5.62 3.56 -5 1 C-3 0 -3 0 0 0 Z " fill="#00264D" transform="translate(1089,278)"/>
<path d="M0 0 C1.32 0 2.64 0 4 0 C6 3 6 3 5.81 5.12 C5.54 5.74 5.28 6.36 5 7 C2 8 2 8 -0.19 7.06 C-0.79 6.71 -1.38 6.36 -2 6 C-1.12 1.12 -1.12 1.12 0 0 Z " fill="#00264D" transform="translate(906,269)"/>
<path d="M0 0 C1.32 0 2.64 0 4 0 C5.12 2.31 5.12 2.31 6 5 C5.01 6.49 5.01 6.49 4 8 C1.83 7.49 0 7 -2 6 C-1.12 1.12 -1.12 1.12 0 0 Z " fill="#00264D" transform="translate(982,262)"/>
<path d="M0 0 C1.32 0 2.64 0 4 0 C6 3 6 3 5.81 5.12 C5.54 5.74 5.28 6.36 5 7 C2 8 2 8 -0.19 7.06 C-0.79 6.71 -1.38 6.36 -2 6 C-1.12 1.12 -1.12 1.12 0 0 Z " fill="#00264D" transform="translate(1007,260)"/>
<path d="M0 0 C1.21 0.03 1.21 0.03 2.44 0.06 C3.5 2.44 3.5 2.44 4.44 5.06 C4.11 5.72 3.78 6.38 3.44 7.06 C1.13 6.73 -1.18 6.4 -3.56 6.06 C-3.61 4.4 -3.6 2.73 -3.56 1.06 C-2.56 0.06 -2.56 0.06 0 0 Z " fill="#00264D" transform="translate(1109.5625,250.9375)"/>
<path d="M0 0 C2.06 0.69 2.06 0.69 4 2 C4.88 4 4.88 4 5 6 C4.34 6.66 3.68 7.32 3 8 C0.74 7.65 -0.95 7.02 -3 6 C-2.62 3.56 -2.62 3.56 -2 1 C-1.34 0.67 -0.68 0.34 0 0 Z " fill="#00264D" transform="translate(1127,452)"/>
<path d="M0 0 C1.32 0 2.64 0 4 0 C4.66 1.65 5.32 3.3 6 5 C5.01 5.99 4.02 6.98 3 8 C0.53 7.01 0.53 7.01 -2 6 C-1.12 1.12 -1.12 1.12 0 0 Z " fill="#00264D" transform="translate(235,431)"/>
<path d="M0 0 C2.06 0.44 2.06 0.44 4 1 C4.33 2.98 4.66 4.96 5 7 C2.62 7.62 2.62 7.62 0 8 C-0.66 7.34 -1.32 6.68 -2 6 C-1.44 1.44 -1.44 1.44 0 0 Z " fill="#00264D" transform="translate(462,410)"/>
<path d="M0 0 C1.94 0.19 1.94 0.19 4 1 C5.25 3.06 5.25 3.06 6 5 C5.01 6.49 5.01 6.49 4 8 C1.83 7.49 0 7 -2 6 C-1.12 1.12 -1.12 1.12 0 0 Z " fill="#00264D" transform="translate(258,403)"/>
<path d="M0 0 C2 3 2 3 1.62 5.69 C1.42 6.45 1.21 7.21 1 8 C-1.38 7.69 -1.38 7.69 -4 7 C-4.66 6.01 -5.32 5.02 -6 4 C-5.67 3.01 -5.34 2.02 -5 1 C-2 0 -2 0 0 0 Z " fill="#00264D" transform="translate(566,401)"/>
<path d="M0 0 C1.32 0 2.64 0 4 0 C4.66 1.65 5.32 3.3 6 5 C5.01 5.99 4.02 6.98 3 8 C0.52 7.01 0.52 7.01 -2 6 C-1.12 1.12 -1.12 1.12 0 0 Z " fill="#00264D" transform="translate(613,397)"/>
<path d="M0 0 C1.21 0.03 1.21 0.03 2.44 0.06 C3.1 1.71 3.76 3.36 4.44 5.06 C3.78 5.72 3.12 6.38 2.44 7.06 C-0.19 6.69 -0.19 6.69 -2.56 6.06 C-2.94 4.41 -3.28 2.74 -3.56 1.06 C-2.56 0.06 -2.56 0.06 0 0 Z " fill="#00264D" transform="translate(740.5625,385.9375)"/>
<path d="M0 0 C2.19 1.44 2.19 1.44 4 3 C3.67 4.32 3.34 5.64 3 7 C1.19 7.62 1.19 7.62 -1 8 C-1.99 7.34 -2.98 6.68 -4 6 C-3.67 4.35 -3.34 2.7 -3 1 C-2.01 0.67 -1.02 0.34 0 0 Z " fill="#00264D" transform="translate(537,378)"/>
<path d="M0 0 C1.32 0 2.64 0 4 0 C6 3 6 3 5.81 5.12 C5.54 5.74 5.28 6.36 5 7 C4.01 7.33 3.02 7.66 2 8 C-0.19 6.56 -0.19 6.56 -2 5 C-1.12 1.12 -1.12 1.12 0 0 Z " fill="#00264D" transform="translate(1119,377)"/>
<path d="M0 0 C1.94 0.19 1.94 0.19 4 1 C5.25 3.06 5.25 3.06 6 5 C5.01 6.49 5.01 6.49 4 8 C1.83 7.49 0 7 -2 6 C-1.12 1.12 -1.12 1.12 0 0 Z " fill="#00264D" transform="translate(636,369)"/>
<path d="M0 0 C2.06 0.44 2.06 0.44 4 1 C4.33 2.98 4.66 4.96 5 7 C2.62 7.62 2.62 7.62 0 8 C-0.66 7.34 -1.32 6.68 -2 6 C-1.44 1.44 -1.44 1.44 0 0 Z " fill="#00264D" transform="translate(304,348)"/>
<path d="M0 0 C1.21 0.03 1.21 0.03 2.44 0.06 C3.1 1.71 3.76 3.36 4.44 5.06 C3.78 5.72 3.12 6.38 2.44 7.06 C-0.69 6.69 -0.69 6.69 -3.56 6.06 C-3.61 4.4 -3.6 2.73 -3.56 1.06 C-2.56 0.06 -2.56 0.06 0 0 Z " fill="#00264D" transform="translate(889.5625,346.9375)"/>
<path d="M0 0 C1.32 0 2.64 0 4 0 C4.66 1.65 5.32 3.3 6 5 C5.01 5.99 4.02 6.98 3 8 C0.52 7.01 0.52 7.01 -2 6 C-1.12 1.12 -1.12 1.12 0 0 Z " fill="#00264D" transform="translate(659,342)"/>
<path d="M0 0 C1.32 1.32 2.64 2.64 4 4 C3.34 5.32 2.68 6.64 2 8 C0.35 7.67 -1.3 7.34 -3 7 C-3.33 5.35 -3.66 3.7 -4 2 C-2.68 1.34 -1.36 0.68 0 0 Z " fill="#00264D" transform="translate(1016,335)"/>
<path d="M0 0 C1.32 0 2.64 0 4 0 C4.66 1.65 5.32 3.3 6 5 C5.01 5.99 4.02 6.98 3 8 C0.52 7.01 0.52 7.01 -2 6 C-1.12 1.12 -1.12 1.12 0 0 Z " fill="#00264D" transform="translate(455,335)"/>
<path d="M0 0 C2 3 2 3 1.62 5.19 C1.42 5.79 1.21 6.38 1 7 C-0.81 7.62 -0.81 7.62 -3 8 C-3.99 7.34 -4.98 6.68 -6 6 C-5.62 3.56 -5.62 3.56 -5 1 C-3 0 -3 0 0 0 Z " fill="#00264D" transform="translate(509,330)"/>
<path d="M0 0 C1.32 0 2.64 0 4 0 C4.66 1.65 5.32 3.3 6 5 C5.01 5.99 4.02 6.98 3 8 C0.53 7.01 0.53 7.01 -2 6 C-1.12 1.12 -1.12 1.12 0 0 Z " fill="#00264D" transform="translate(226,330)"/>
<path d="M0 0 C2.06 0.44 2.06 0.44 4 1 C4.33 2.98 4.66 4.96 5 7 C2.62 7.62 2.62 7.62 0 8 C-0.66 7.34 -1.32 6.68 -2 6 C-1.44 1.44 -1.44 1.44 0 0 Z " fill="#00264D" transform="translate(1115,326)"/>
<path d="M0 0 C2.19 1.44 2.19 1.44 4 3 C3.67 4.65 3.34 6.3 3 8 C-1.75 7.12 -1.75 7.12 -4 6 C-3.67 4.35 -3.34 2.7 -3 1 C-2.01 0.67 -1.02 0.34 0 0 Z " fill="#00264D" transform="translate(988,312)"/>
<path d="M0 0 C1.65 0 3.3 0 5 0 C6.06 2.38 6.06 2.38 7 5 C6.67 5.66 6.34 6.32 6 7 C3.62 7.12 3.62 7.12 1 7 C0.34 6.34 -0.32 5.68 -1 5 C-0.62 2.38 -0.62 2.38 0 0 Z " fill="#00264D" transform="translate(857,299)"/>
<path d="M0 0 C1.32 0 2.64 0 4 0 C6 3 6 3 5.62 5.19 C5.42 5.79 5.21 6.38 5 7 C3.68 7.33 2.36 7.66 1 8 C0.01 6.68 -0.98 5.36 -2 4 C-1.34 2.68 -0.68 1.36 0 0 Z " fill="#00264D" transform="translate(908,294)"/>
<path d="M0 0 C1.21 0.03 1.21 0.03 2.44 0.06 C2.77 2.04 3.1 4.02 3.44 6.06 C1.46 7.05 1.46 7.05 -0.56 8.06 C-1.55 7.4 -2.54 6.74 -3.56 6.06 C-3.81 3.5 -3.81 3.5 -3.56 1.06 C-2.56 0.06 -2.56 0.06 0 0 Z " fill="#00264D" transform="translate(935.5625,291.9375)"/>
<path d="M0 0 C2.19 1.44 2.19 1.44 4 3 C3.67 4.32 3.34 5.64 3 7 C1.19 7.62 1.19 7.62 -1 8 C-1.99 7.34 -2.98 6.68 -4 6 C-3.67 4.35 -3.34 2.7 -3 1 C-2.01 0.67 -1.02 0.34 0 0 Z " fill="#00264D" transform="translate(757,282)"/>
<path d="M0 0 C1.32 1.32 2.64 2.64 4 4 C3.34 5.32 2.68 6.64 2 8 C0.35 7.67 -1.3 7.34 -3 7 C-3.33 5.35 -3.66 3.7 -4 2 C-2.68 1.34 -1.36 0.68 0 0 Z " fill="#00264D" transform="translate(858,273)"/>
<path d="M0 0 C1.68 0.29 3.34 0.62 5 1 C5.33 2.65 5.66 4.3 6 6 C4.02 6.99 4.02 6.99 2 8 C1.01 7.34 0.02 6.68 -1 6 C-1.25 3.44 -1.25 3.44 -1 1 C-0.67 0.67 -0.34 0.34 0 0 Z " fill="#00264D" transform="translate(1075,457)"/>
<path d="M0 0 C1.65 0.33 3.3 0.66 5 1 C5.38 2.66 5.71 4.32 6 6 C5 7 5 7 2.44 7.06 C1.23 7.03 1.23 7.03 0 7 C-0.66 5.68 -1.32 4.36 -2 3 C-1.34 2.01 -0.68 1.02 0 0 Z " fill="#00264D" transform="translate(1073,432)"/>
<path d="M0 0 C0.99 0 1.98 0 3 0 C5 3 5 3 4.62 5.69 C4.42 6.45 4.21 7.21 4 8 C2.35 7.67 0.7 7.34 -1 7 C-1.62 4.62 -1.62 4.62 -2 2 C-1.34 1.34 -0.68 0.68 0 0 Z " fill="#00264D" transform="translate(1099,429)"/>
<path d="M0 0 C2 1.81 2 1.81 4 4 C4 4.99 4 5.98 4 7 C1.69 7.62 1.69 7.62 -1 8 C-1.99 7.34 -2.98 6.68 -4 6 C-3.67 4.35 -3.34 2.7 -3 1 C-2.01 0.67 -1.02 0.34 0 0 Z " fill="#00264D" transform="translate(262,428)"/>
<path d="M0 0 C1.32 0 2.64 0 4 0 C6 3 6 3 5.81 5.12 C5.54 5.74 5.28 6.36 5 7 C4.01 7.33 3.02 7.66 2 8 C0.68 6.68 -0.64 5.36 -2 4 C-1.34 2.68 -0.68 1.36 0 0 Z " fill="#00264D" transform="translate(310,424)"/>
<path d="M0 0 C1.32 1.32 2.64 2.64 4 4 C3.34 5.32 2.68 6.64 2 8 C-0.17 7.49 -2 7 -4 6 C-3.67 4.35 -3.34 2.7 -3 1 C-2.01 0.67 -1.02 0.34 0 0 Z " fill="#00264D" transform="translate(363,419)"/>
<path d="M0 0 C1.32 1.32 2.64 2.64 4 4 C3.34 5.32 2.68 6.64 2 8 C-0.17 7.49 -2 7 -4 6 C-3.67 4.35 -3.34 2.7 -3 1 C-2.01 0.67 -1.02 0.34 0 0 Z " fill="#00264D" transform="translate(1073,406)"/>
<path d="M0 0 C1.65 0.33 3.3 0.66 5 1 C5.33 2.65 5.66 4.3 6 6 C3.69 6.62 3.69 6.62 1 7 C0.01 6.34 -0.98 5.68 -2 5 C-1.34 3.35 -0.68 1.7 0 0 Z " fill="#00264D" transform="translate(537,404)"/>
<path d="M0 0 C1.32 0 2.64 0 4 0 C6 3 6 3 5.81 5.12 C5.54 5.74 5.28 6.36 5 7 C4.01 7.33 3.02 7.66 2 8 C0.68 6.68 -0.64 5.36 -2 4 C-1.34 2.68 -0.68 1.36 0 0 Z " fill="#00264D" transform="translate(1121,402)"/>
<path d="M0 0 C3.69 0.69 3.69 0.69 5 2 C5.04 3.67 5.04 5.33 5 7 C3.35 7.33 1.7 7.66 0 8 C0 7.34 0 6.68 0 6 C-0.66 6 -1.32 6 -2 6 C-1.12 1.12 -1.12 1.12 0 0 Z " fill="#00264D" transform="translate(588,399)"/>
<path d="M0 0 C1.32 0 2.64 0 4 0 C6 3 6 3 5.81 5.12 C5.54 5.74 5.28 6.36 5 7 C4.01 7.33 3.02 7.66 2 8 C-0.19 6.56 -0.19 6.56 -2 5 C-1.34 3.35 -0.68 1.7 0 0 Z " fill="#00264D" transform="translate(308,399)"/>
<path d="M0 0 C1.68 0.29 3.34 0.62 5 1 C5.33 2.65 5.66 4.3 6 6 C3.69 6.62 3.69 6.62 1 7 C0.01 6.34 -0.98 5.68 -2 5 C-1.12 1.12 -1.12 1.12 0 0 Z " fill="#00264D" transform="translate(333,397)"/>
<path d="M0 0 C2 3 2 3 1.62 5.19 C1.42 5.79 1.21 6.38 1 7 C-0.81 7.62 -0.81 7.62 -3 8 C-3.99 7.34 -4.98 6.68 -6 6 C-5.67 4.35 -5.34 2.7 -5 1 C-2 0 -2 0 0 0 Z " fill="#00264D" transform="translate(667,392)"/>
<path d="M0 0 C1.32 0 2.64 0 4 0 C6 3 6 3 5.81 5.12 C5.54 5.74 5.28 6.36 5 7 C4.01 7.33 3.02 7.66 2 8 C0.68 6.68 -0.64 5.36 -2 4 C-1.34 2.68 -0.68 1.36 0 0 Z " fill="#00264D" transform="translate(688,390)"/>
<path d="M0 0 C2 3 2 3 1.62 5.19 C1.42 5.79 1.21 6.38 1 7 C-0.32 7.33 -1.64 7.66 -3 8 C-4.56 6.19 -4.56 6.19 -6 4 C-5.67 3.01 -5.34 2.02 -5 1 C-3 0 -3 0 0 0 Z " fill="#00264D" transform="translate(463,385)"/>
<path d="M0 0 C1.68 0.29 3.34 0.62 5 1 C5.33 2.65 5.66 4.3 6 6 C4.02 6.99 4.02 6.99 2 8 C1.01 7.34 0.02 6.68 -1 6 C-1.25 3.44 -1.25 3.44 -1 1 C-0.67 0.67 -0.34 0.34 0 0 Z " fill="#00264D" transform="translate(484,383)"/>
<path d="M0 0 C2.06 0.75 2.06 0.75 4 2 C4.33 2.99 4.66 3.98 5 5 C4.01 6.49 4.01 6.49 3 8 C0.83 7.49 -1 7 -3 6 C-2.62 3.56 -2.62 3.56 -2 1 C-1.34 0.67 -0.68 0.34 0 0 Z " fill="#00264D" transform="translate(1070,381)"/>
<path d="M0 0 C1.21 0.03 1.21 0.03 2.44 0.06 C3.1 1.71 3.76 3.36 4.44 5.06 C3.78 5.72 3.12 6.38 2.44 7.06 C-0.19 6.69 -0.19 6.69 -2.56 6.06 C-2.94 4.41 -3.28 2.74 -3.56 1.06 C-2.56 0.06 -2.56 0.06 0 0 Z " fill="#00264D" transform="translate(511.5625,380.9375)"/>
<path d="M0 0 C2 3 2 3 1.62 5.19 C1.42 5.79 1.21 6.38 1 7 C-0.81 7.62 -0.81 7.62 -3 8 C-3.99 7.34 -4.98 6.68 -6 6 C-5.67 4.35 -5.34 2.7 -5 1 C-2 0 -2 0 0 0 Z " fill="#00264D" transform="translate(234,380)"/>
<path d="M0 0 C1.32 0 2.64 0 4 0 C6 3 6 3 5.81 5.12 C5.54 5.74 5.28 6.36 5 7 C4.01 7.33 3.02 7.66 2 8 C0.68 6.68 -0.64 5.36 -2 4 C-1.34 2.68 -0.68 1.36 0 0 Z " fill="#00264D" transform="translate(585,374)"/>
<path d="M0 0 C0.99 0 1.98 0 3 0 C5 3 5 3 4.62 5.69 C4.42 6.45 4.21 7.21 4 8 C2.35 7.67 0.7 7.34 -1 7 C-1.62 4.62 -1.62 4.62 -2 2 C-1.34 1.34 -0.68 0.68 0 0 Z " fill="#00264D" transform="translate(941,367)"/>
<path d="M0 0 C1.68 0.29 3.34 0.62 5 1 C5.33 2.65 5.66 4.3 6 6 C4.02 6.99 4.02 6.99 2 8 C1.01 7.34 0.02 6.68 -1 6 C-1.25 3.44 -1.25 3.44 -1 1 C-0.67 0.67 -0.34 0.34 0 0 Z " fill="#00264D" transform="translate(381,367)"/>
<path d="M0 0 C1.32 0 2.64 0 4 0 C6 3 6 3 5.81 5.12 C5.54 5.74 5.28 6.36 5 7 C4.01 7.33 3.02 7.66 2 8 C-0.19 6.56 -0.19 6.56 -2 5 C-1.34 3.35 -0.68 1.7 0 0 Z " fill="#00264D" transform="translate(686,365)"/>
<path d="M0 0 C1.65 0 3.3 0 5 0 C6.06 2.38 6.06 2.38 7 5 C6.67 5.66 6.34 6.32 6 7 C4.35 7 2.7 7 1 7 C1 6.34 1 5.68 1 5 C0.34 5 -0.32 5 -1 5 C-0.67 3.35 -0.34 1.7 0 0 Z " fill="#00264D" transform="translate(1015,361)"/>
<path d="M0 0 C0.99 0.33 1.98 0.66 3 1 C3.33 2.98 3.66 4.96 4 7 C1.62 7.62 1.62 7.62 -1 8 C-1.66 7.34 -2.32 6.68 -3 6 C-2.75 3.44 -2.75 3.44 -2 1 C-1.34 0.67 -0.68 0.34 0 0 Z " fill="#00264D" transform="translate(738,360)"/>
<path d="M0 0 C2 3 2 3 1.62 5.19 C1.42 5.79 1.21 6.38 1 7 C-0.81 7.62 -0.81 7.62 -3 8 C-3.99 7.34 -4.98 6.68 -6 6 C-5.67 4.35 -5.34 2.7 -5 1 C-2 0 -2 0 0 0 Z " fill="#00264D" transform="translate(1045,358)"/>
<path d="M0 0 C1.32 0 2.64 0 4 0 C6 3 6 3 5.81 5.12 C5.54 5.74 5.28 6.36 5 7 C4.01 7.33 3.02 7.66 2 8 C0.68 6.68 -0.64 5.36 -2 4 C-1.34 2.68 -0.68 1.36 0 0 Z " fill="#00264D" transform="translate(1066,356)"/>
<path d="M0 0 C1.32 0 2.64 0 4 0 C4.66 1.65 5.32 3.3 6 5 C5.01 5.99 4.02 6.98 3 8 C1.35 7.01 -0.3 6.02 -2 5 C-1.12 1.12 -1.12 1.12 0 0 Z " fill="#00264D" transform="translate(787,356)"/>
<path d="M0 0 C1.68 0.29 3.34 0.62 5 1 C5.33 2.65 5.66 4.3 6 6 C4.02 6.99 4.02 6.99 2 8 C1.01 7.34 0.02 6.68 -1 6 C-1.25 3.44 -1.25 3.44 -1 1 C-0.67 0.67 -0.34 0.34 0 0 Z " fill="#00264D" transform="translate(1091,354)"/>
<path d="M0 0 C2.06 0.75 2.06 0.75 4 2 C4.33 2.99 4.66 3.98 5 5 C4.01 6.49 4.01 6.49 3 8 C0.83 7.49 -1 7 -3 6 C-2.62 3.56 -2.62 3.56 -2 1 C-1.34 0.67 -0.68 0.34 0 0 Z " fill="#00264D" transform="translate(534,353)"/>
<path d="M0 0 C1.21 0.03 1.21 0.03 2.44 0.06 C3.1 1.71 3.76 3.36 4.44 5.06 C3.78 5.72 3.12 6.38 2.44 7.06 C-0.19 6.69 -0.19 6.69 -2.56 6.06 C-2.94 4.41 -3.28 2.74 -3.56 1.06 C-2.56 0.06 -2.56 0.06 0 0 Z " fill="#00264D" transform="translate(1118.5625,351.9375)"/>
<path d="M0 0 C1.32 1.32 2.64 2.64 4 4 C3.34 5.32 2.68 6.64 2 8 C-0.17 7.49 -2 7 -4 6 C-3.67 4.35 -3.34 2.7 -3 1 C-2.01 0.67 -1.02 0.34 0 0 Z " fill="#00264D" transform="translate(915,344)"/>
<path d="M0 0 C1.32 0 2.64 0 4 0 C6 3 6 3 5.81 5.12 C5.54 5.74 5.28 6.36 5 7 C4.01 7.33 3.02 7.66 2 8 C0.68 6.68 -0.64 5.36 -2 4 C-1.34 2.68 -0.68 1.36 0 0 Z " fill="#00264D" transform="translate(963,340)"/>
<path d="M0 0 C1.68 0.29 3.34 0.62 5 1 C5.33 2.65 5.66 4.3 6 6 C4.02 6.99 4.02 6.99 2 8 C1.01 7.34 0.02 6.68 -1 6 C-1.25 3.44 -1.25 3.44 -1 1 C-0.67 0.67 -0.34 0.34 0 0 Z " fill="#00264D" transform="translate(759,333)"/>
<path d="M0 0 C1.32 0 2.64 0 4 0 C6 3 6 3 5.81 5.12 C5.54 5.74 5.28 6.36 5 7 C4.01 7.33 3.02 7.66 2 8 C0.68 6.68 -0.64 5.36 -2 4 C-1.34 2.68 -0.68 1.36 0 0 Z " fill="#00264D" transform="translate(530,328)"/>
<path d="M0 0 C1.32 0 2.64 0 4 0 C4.66 1.65 5.32 3.3 6 5 C5.01 5.99 4.02 6.98 3 8 C1.35 7.01 -0.3 6.02 -2 5 C-1.12 1.12 -1.12 1.12 0 0 Z " fill="#00264D" transform="translate(251,328)"/>
<path d="M0 0 C1.32 1.32 2.64 2.64 4 4 C3.34 5.32 2.68 6.64 2 8 C-0.17 7.49 -2 7 -4 6 C-3.67 4.35 -3.34 2.7 -3 1 C-2.01 0.67 -1.02 0.34 0 0 Z " fill="#00264D" transform="translate(583,323)"/>
<path d="M0 0 C2 3 2 3 1.62 5.19 C1.42 5.79 1.21 6.38 1 7 C-0.32 7.33 -1.64 7.66 -3 8 C-4.56 6.19 -4.56 6.19 -6 4 C-5.67 3.01 -5.34 2.02 -5 1 C-3 0 -3 0 0 0 Z " fill="#00264D" transform="translate(305,323)"/>
<path d="M0 0 C1.68 0.29 3.34 0.62 5 1 C5.33 2.65 5.66 4.3 6 6 C4.02 6.99 4.02 6.99 2 8 C1.01 7.34 0.02 6.68 -1 6 C-1.25 3.44 -1.25 3.44 -1 1 C-0.67 0.67 -0.34 0.34 0 0 Z " fill="#00264D" transform="translate(326,321)"/>
<path d="M0 0 C2.06 0.75 2.06 0.75 4 2 C4.33 2.99 4.66 3.98 5 5 C4.01 6.49 4.01 6.49 3 8 C0.83 7.49 -1 7 -3 6 C-2.62 3.56 -2.62 3.56 -2 1 C-1.34 0.67 -0.68 0.34 0 0 Z " fill="#00264D" transform="translate(912,319)"/>
<path d="M0 0 C1.21 0.03 1.21 0.03 2.44 0.06 C3.1 1.71 3.76 3.36 4.44 5.06 C3.78 5.72 3.12 6.38 2.44 7.06 C-0.19 6.69 -0.19 6.69 -2.56 6.06 C-2.94 4.41 -3.28 2.74 -3.56 1.06 C-2.56 0.06 -2.56 0.06 0 0 Z " fill="#00264D" transform="translate(353.5625,318.9375)"/>
<path d="M0 0 C1.32 0 2.64 0 4 0 C6 3 6 3 5.81 5.12 C5.54 5.74 5.28 6.36 5 7 C4.01 7.33 3.02 7.66 2 8 C-0.19 6.56 -0.19 6.56 -2 5 C-1.34 3.35 -0.68 1.7 0 0 Z " fill="#00264D" transform="translate(961,315)"/>
<path d="M0 0 C1.94 0.19 1.94 0.19 4 1 C5.25 3.06 5.25 3.06 6 5 C5.01 5.99 4.02 6.98 3 8 C0.53 7.01 0.53 7.01 -2 6 C-1.12 1.12 -1.12 1.12 0 0 Z " fill="#00264D" transform="translate(1037,308)"/>
<path d="M0 0 C1.65 0 3.3 0 5 0 C6.06 2.38 6.06 2.38 7 5 C6.67 5.66 6.34 6.32 6 7 C3.62 7.12 3.62 7.12 1 7 C0.34 6.34 -0.32 5.68 -1 5 C-0.62 2.38 -0.62 2.38 0 0 Z " fill="#00264D" transform="translate(1061,306)"/>
<path d="M0 0 C0.99 0 1.98 0 3 0 C5 3 5 3 4.62 5.69 C4.42 6.45 4.21 7.21 4 8 C2.35 7.67 0.7 7.34 -1 7 C-1.62 4.62 -1.62 4.62 -2 2 C-1.34 1.34 -0.68 0.68 0 0 Z " fill="#00264D" transform="translate(783,305)"/>
<path d="M0 0 C2.19 1.44 2.19 1.44 4 3 C3.67 4.32 3.34 5.64 3 7 C1.19 7.62 1.19 7.62 -1 8 C-1.99 7.34 -2.98 6.68 -4 6 C-3.67 4.35 -3.34 2.7 -3 1 C-2.01 0.67 -1.02 0.34 0 0 Z " fill="#00264D" transform="translate(1089,303)"/>
<path d="M0 0 C1.32 0 2.64 0 4 0 C6 3 6 3 5.81 5.12 C5.54 5.74 5.28 6.36 5 7 C4.01 7.33 3.02 7.66 2 8 C-0.19 6.56 -0.19 6.56 -2 5 C-1.34 3.35 -0.68 1.7 0 0 Z " fill="#00264D" transform="translate(528,303)"/>
<path d="M0 0 C2 3 2 3 1.62 5.19 C1.42 5.79 1.21 6.38 1 7 C-0.81 7.62 -0.81 7.62 -3 8 C-3.99 7.34 -4.98 6.68 -6 6 C-5.67 4.35 -5.34 2.7 -5 1 C-2 0 -2 0 0 0 Z " fill="#00264D" transform="translate(887,296)"/>
<path d="M0 0 C1.32 0 2.64 0 4 0 C4.66 1.65 5.32 3.3 6 5 C5.01 5.99 4.02 6.98 3 8 C1.35 7.01 -0.3 6.02 -2 5 C-1.12 1.12 -1.12 1.12 0 0 Z " fill="#00264D" transform="translate(629,294)"/>
<path d="M0 0 C1.21 0.03 1.21 0.03 2.44 0.06 C3.1 1.71 3.76 3.36 4.44 5.06 C3.78 5.72 3.12 6.38 2.44 7.06 C-0.19 6.69 -0.19 6.69 -2.56 6.06 C-2.94 4.41 -3.28 2.74 -3.56 1.06 C-2.56 0.06 -2.56 0.06 0 0 Z " fill="#00264D" transform="translate(960.5625,289.9375)"/>
<path d="M0 0 C1.21 0.03 1.21 0.03 2.44 0.06 C3.1 1.71 3.76 3.36 4.44 5.06 C3.78 5.72 3.12 6.38 2.44 7.06 C-0.19 6.69 -0.19 6.69 -2.56 6.06 C-2.94 4.41 -3.28 2.74 -3.56 1.06 C-2.56 0.06 -2.56 0.06 0 0 Z " fill="#00264D" transform="translate(731.5625,284.9375)"/>
<path d="M0 0 C1.32 0 2.64 0 4 0 C6 3 6 3 5.81 5.12 C5.54 5.74 5.28 6.36 5 7 C4.01 7.33 3.02 7.66 2 8 C0.68 6.68 -0.64 5.36 -2 4 C-1.34 2.68 -0.68 1.36 0 0 Z " fill="#00264D" transform="translate(805,278)"/>
<path d="M0 0 C0.99 0.33 1.98 0.66 3 1 C3.33 2.98 3.66 4.96 4 7 C1.62 7.62 1.62 7.62 -1 8 C-1.66 7.34 -2.32 6.68 -3 6 C-2.75 3.44 -2.75 3.44 -2 1 C-1.34 0.67 -0.68 0.34 0 0 Z " fill="#00264D" transform="translate(958,264)"/>
<path d="M0 0 C1.21 0.03 1.21 0.03 2.44 0.06 C2.77 2.04 3.1 4.02 3.44 6.06 C-1.31 7.19 -1.31 7.19 -3.56 6.06 C-3.61 4.4 -3.6 2.73 -3.56 1.06 C-2.56 0.06 -2.56 0.06 0 0 Z " fill="#00264D" transform="translate(337.5625,421.9375)"/>
<path d="M0 0 C0.99 0.33 1.98 0.66 3 1 C3.33 2.98 3.66 4.96 4 7 C2.19 7.62 2.19 7.62 0 8 C-0.99 7.34 -1.98 6.68 -3 6 C-2.62 3.56 -2.62 3.56 -2 1 C-1.34 0.67 -0.68 0.34 0 0 Z " fill="#00264D" transform="translate(360,394)"/>
<path d="M0 0 C1.32 0 2.64 0 4 0 C5.06 2.38 5.06 2.38 6 5 C5.67 5.66 5.34 6.32 5 7 C2.62 7.12 2.62 7.12 0 7 C-0.66 6.34 -1.32 5.68 -2 5 C-1.46 1.46 -1.46 1.46 0 0 Z " fill="#00264D" transform="translate(409,390)"/>
<path d="M0 0 C1.21 0.03 1.21 0.03 2.44 0.06 C2.77 2.04 3.1 4.02 3.44 6.06 C-1.31 7.19 -1.31 7.19 -3.56 6.06 C-3.61 4.4 -3.6 2.73 -3.56 1.06 C-2.56 0.06 -2.56 0.06 0 0 Z " fill="#00264D" transform="translate(715.5625,387.9375)"/>
<path d="M0 0 C2.19 1.44 2.19 1.44 4 3 C3.67 4.32 3.34 5.64 3 7 C1.19 7.62 1.19 7.62 -1 8 C-1.99 7.34 -2.98 6.68 -4 6 C-3.67 4.35 -3.34 2.7 -3 1 C-2.01 0.67 -1.02 0.34 0 0 Z " fill="#00264D" transform="translate(436,387)"/>
<path d="M0 0 C1.65 0 3.3 0 5 0 C5.66 1.65 6.32 3.3 7 5 C6.34 5.66 5.68 6.32 5 7 C3.68 7 2.36 7 1 7 C1 6.34 1 5.68 1 5 C0.34 5 -0.32 5 -1 5 C-0.67 3.35 -0.34 1.7 0 0 Z " fill="#00264D" transform="translate(305,374)"/>
<path d="M0 0 C1.21 0.03 1.21 0.03 2.44 0.06 C2.77 2.04 3.1 4.02 3.44 6.06 C-1.31 7.19 -1.31 7.19 -3.56 6.06 C-3.61 4.4 -3.6 2.73 -3.56 1.06 C-2.56 0.06 -2.56 0.06 0 0 Z " fill="#00264D" transform="translate(612.5625,371.9375)"/>
<path d="M0 0 C1.65 0.33 3.3 0.66 5 1 C5.33 2.65 5.66 4.3 6 6 C3.69 6.62 3.69 6.62 1 7 C0.01 6.34 -0.98 5.68 -2 5 C-1.34 3.35 -0.68 1.7 0 0 Z " fill="#00264D" transform="translate(915,370)"/>
<path d="M0 0 C3.69 0.69 3.69 0.69 5 2 C5.04 3.67 5.04 5.33 5 7 C3.19 7.62 3.19 7.62 1 8 C0.01 7.34 -0.98 6.68 -2 6 C-1.12 1.12 -1.12 1.12 0 0 Z " fill="#00264D" transform="translate(966,365)"/>
<path d="M0 0 C1.65 0.33 3.3 0.66 5 1 C5.33 2.65 5.66 4.3 6 6 C3.69 6.62 3.69 6.62 1 7 C0.01 6.34 -0.98 5.68 -2 5 C-1.34 3.35 -0.68 1.7 0 0 Z " fill="#00264D" transform="translate(711,363)"/>
<path d="M0 0 C2.19 1.44 2.19 1.44 4 3 C3.67 4.32 3.34 5.64 3 7 C1.19 7.62 1.19 7.62 -1 8 C-1.99 7.34 -2.98 6.68 -4 6 C-3.67 4.35 -3.34 2.7 -3 1 C-2.01 0.67 -1.02 0.34 0 0 Z " fill="#00264D" transform="translate(814,353)"/>
<path d="M0 0 C2 3 2 3 1.62 5.19 C1.42 5.79 1.21 6.38 1 7 C-0.32 7.33 -1.64 7.66 -3 8 C-4.56 6.19 -4.56 6.19 -6 4 C-5.67 3.01 -5.34 2.02 -5 1 C-2 0 -2 0 0 0 Z " fill="#00264D" transform="translate(841,351)"/>
<path d="M0 0 C0.33 1.65 0.66 3.3 1 5 C-0.98 5.99 -0.98 5.99 -3 7 C-3.99 6.34 -4.98 5.68 -6 5 C-6.19 2.38 -6.19 2.38 -6 0 C-3.51 -1.25 -2.59 -0.78 0 0 Z " fill="#00264D" transform="translate(867,350)"/>
<path d="M0 0 C1.32 0 2.64 0 4 0 C5.06 2.38 5.06 2.38 6 5 C5.67 5.66 5.34 6.32 5 7 C2.62 7.12 2.62 7.12 0 7 C-0.66 6.34 -1.32 5.68 -2 5 C-1.46 1.46 -1.46 1.46 0 0 Z " fill="#00264D" transform="translate(583,349)"/>
<path d="M0 0 C2.19 1.44 2.19 1.44 4 3 C3.67 4.32 3.34 5.64 3 7 C1.19 7.62 1.19 7.62 -1 8 C-1.99 7.34 -2.98 6.68 -4 6 C-3.67 4.35 -3.34 2.7 -3 1 C-2.01 0.67 -1.02 0.34 0 0 Z " fill="#00264D" transform="translate(610,346)"/>
<path d="M0 0 C1.65 0.33 3.3 0.66 5 1 C5.33 2.65 5.66 4.3 6 6 C3.69 6.62 3.69 6.62 1 7 C0.01 6.34 -0.98 5.68 -2 5 C-1.34 3.35 -0.68 1.7 0 0 Z " fill="#00264D" transform="translate(379,342)"/>
<path d="M0 0 C1.65 0 3.3 0 5 0 C5.66 1.65 6.32 3.3 7 5 C6.34 5.66 5.68 6.32 5 7 C2.38 6.62 2.38 6.62 0 6 C-1.12 2.25 -1.12 2.25 0 0 Z " fill="#00264D" transform="translate(683,340)"/>
<path d="M0 0 C2 3 2 3 1.62 5.19 C1.42 5.79 1.21 6.38 1 7 C-0.32 7.33 -1.64 7.66 -3 8 C-4.56 6.19 -4.56 6.19 -6 4 C-5.67 3.01 -5.34 2.02 -5 1 C-2 0 -2 0 0 0 Z " fill="#00264D" transform="translate(408,339)"/>
<path d="M0 0 C1.21 0.03 1.21 0.03 2.44 0.06 C2.77 2.04 3.1 4.02 3.44 6.06 C-1.31 7.19 -1.31 7.19 -3.56 6.06 C-3.61 4.4 -3.6 2.73 -3.56 1.06 C-2.56 0.06 -2.56 0.06 0 0 Z " fill="#00264D" transform="translate(990.5625,337.9375)"/>
<path d="M0 0 C3.69 0.69 3.69 0.69 5 2 C5.04 3.67 5.04 5.33 5 7 C3.19 7.62 3.19 7.62 1 8 C0.01 7.34 -0.98 6.68 -2 6 C-1.12 1.12 -1.12 1.12 0 0 Z " fill="#00264D" transform="translate(430,337)"/>
<path d="M0 0 C1.32 1.32 2.64 2.64 4 4 C3.34 5.32 2.68 6.64 2 8 C-0.17 7.49 -2 7 -4 6 C-3.67 4.35 -3.34 2.7 -3 1 C-2.01 0.67 -1.02 0.34 0 0 Z " fill="#00264D" transform="translate(482,332)"/>
<path d="M0 0 C1.21 0.03 1.21 0.03 2.44 0.06 C2.77 2.04 3.1 4.02 3.44 6.06 C-1.31 7.19 -1.31 7.19 -3.56 6.06 C-3.61 4.4 -3.6 2.73 -3.56 1.06 C-2.56 0.06 -2.56 0.06 0 0 Z " fill="#00264D" transform="translate(557.5625,325.9375)"/>
<path d="M0 0 C2.19 1.44 2.19 1.44 4 3 C3.67 4.32 3.34 5.64 3 7 C1.19 7.62 1.19 7.62 -1 8 C-1.99 7.34 -2.98 6.68 -4 6 C-3.67 4.35 -3.34 2.7 -3 1 C-2.01 0.67 -1.02 0.34 0 0 Z " fill="#00264D" transform="translate(278,325)"/>
<path d="M0 0 C2 3 2 3 2 7 C-0.38 7.62 -0.38 7.62 -3 8 C-5 6 -5 6 -5.12 3.38 C-5.08 2.59 -5.04 1.81 -5 1 C-2 0 -2 0 0 0 Z " fill="#00264D" transform="translate(1015,310)"/>
<path d="M0 0 C1.65 0.33 3.3 0.66 5 1 C5.33 2.65 5.66 4.3 6 6 C3.69 6.62 3.69 6.62 1 7 C0.01 6.34 -0.98 5.68 -2 5 C-1.34 3.35 -0.68 1.7 0 0 Z " fill="#00264D" transform="translate(757,308)"/>
<path d="M0 0 C3.69 0.69 3.69 0.69 5 2 C5.04 3.67 5.04 5.33 5 7 C3.19 7.62 3.19 7.62 1 8 C0.01 7.34 -0.98 6.68 -2 6 C-1.12 1.12 -1.12 1.12 0 0 Z " fill="#00264D" transform="translate(808,303)"/>
<path d="M0 0 C0.99 0.33 1.98 0.66 3 1 C3.33 2.98 3.66 4.96 4 7 C2.19 7.62 2.19 7.62 0 8 C-0.99 7.34 -1.98 6.68 -3 6 C-2.62 3.56 -2.62 3.56 -2 1 C-1.34 0.67 -0.68 0.34 0 0 Z " fill="#00264D" transform="translate(580,298)"/>
<path d="M0 0 C2.19 1.44 2.19 1.44 4 3 C3.67 4.32 3.34 5.64 3 7 C1.19 7.62 1.19 7.62 -1 8 C-1.99 7.34 -2.98 6.68 -4 6 C-3.67 4.35 -3.34 2.7 -3 1 C-2.01 0.67 -1.02 0.34 0 0 Z " fill="#00264D" transform="translate(656,291)"/>
<path d="M0 0 C2 3 2 3 1.62 5.19 C1.42 5.79 1.21 6.38 1 7 C-0.32 7.33 -1.64 7.66 -3 8 C-4.56 6.19 -4.56 6.19 -6 4 C-5.67 3.01 -5.34 2.02 -5 1 C-2 0 -2 0 0 0 Z " fill="#00264D" transform="translate(683,289)"/>
<path d="M0 0 C0.33 1.65 0.66 3.3 1 5 C-0.98 5.99 -0.98 5.99 -3 7 C-3.99 6.34 -4.98 5.68 -6 5 C-6.19 2.38 -6.19 2.38 -6 0 C-3.51 -1.25 -2.59 -0.78 0 0 Z " fill="#00264D" transform="translate(709,288)"/>
<path d="M0 0 C1.21 0.03 1.21 0.03 2.44 0.06 C2.77 2.04 3.1 4.02 3.44 6.06 C-1.31 7.19 -1.31 7.19 -3.56 6.06 C-3.61 4.4 -3.6 2.73 -3.56 1.06 C-2.56 0.06 -2.56 0.06 0 0 Z " fill="#00264D" transform="translate(832.5625,275.9375)"/>
<path d="M0 0 C2.38 -0.12 2.38 -0.12 5 0 C5.66 0.66 6.32 1.32 7 2 C6.62 4.62 6.62 4.62 6 7 C1.25 6.12 1.25 6.12 -1 5 C-0.67 3.35 -0.34 1.7 0 0 Z " fill="#00264D" transform="translate(1031,258)"/>
<path d="M0 0 C2 3 2 3 1.62 5.19 C1.42 5.79 1.21 6.38 1 7 C-0.32 7.33 -1.64 7.66 -3 8 C-4.56 6.19 -4.56 6.19 -6 4 C-5.67 3.01 -5.34 2.02 -5 1 C-2 0 -2 0 0 0 Z " fill="#00264D" transform="translate(1061,255)"/>
<path d="M0 0 C0.33 1.65 0.66 3.3 1 5 C-0.98 5.99 -0.98 5.99 -3 7 C-3.99 6.34 -4.98 5.68 -6 5 C-6.19 2.38 -6.19 2.38 -6 0 C-3.51 -1.25 -2.59 -0.78 0 0 Z " fill="#00264D" transform="translate(1087,254)"/>
<path d="M0 0 C1.65 0 3.3 0 5 0 C5.33 1.98 5.66 3.96 6 6 C3.62 6.62 3.62 6.62 1 7 C0.34 6.34 -0.32 5.68 -1 5 C-0.62 2.38 -0.62 2.38 0 0 Z " fill="#00264D" transform="translate(1100,455)"/>
<path d="M0 0 C2.12 0.94 2.12 0.94 4 2 C4 3.65 4 5.3 4 7 C2.19 7.62 2.19 7.62 0 8 C-0.99 7.34 -1.98 6.68 -3 6 C-2.62 3.56 -2.62 3.56 -2 1 C-1.34 0.67 -0.68 0.34 0 0 Z " fill="#00264D" transform="translate(1125,427)"/>
<path d="M0 0 C1.68 0.29 3.34 0.62 5 1 C5.33 2.65 5.66 4.3 6 6 C1.25 7.12 1.25 7.12 -1 6 C-1.04 4.33 -1.04 2.67 -1 1 C-0.67 0.67 -0.34 0.34 0 0 Z " fill="#00264D" transform="translate(436,413)"/>
<path d="M0 0 C1.65 0 3.3 0 5 0 C5.33 1.98 5.66 3.96 6 6 C3.62 6.62 3.62 6.62 1 7 C0.34 6.34 -0.32 5.68 -1 5 C-0.62 2.38 -0.62 2.38 0 0 Z " fill="#00264D" transform="translate(232,406)"/>
<path d="M0 0 C1.65 0 3.3 0 5 0 C5.66 1.65 6.32 3.3 7 5 C6.34 5.66 5.68 6.32 5 7 C2.74 6.65 1.05 6.02 -1 5 C-0.67 3.35 -0.34 1.7 0 0 Z " fill="#00264D" transform="translate(637,395)"/>
<path d="M0 0 C1.68 0.29 3.34 0.62 5 1 C5.33 2.65 5.66 4.3 6 6 C1.25 7.12 1.25 7.12 -1 6 C-1.04 4.33 -1.04 2.67 -1 1 C-0.67 0.67 -0.34 0.34 0 0 Z " fill="#00264D" transform="translate(814,379)"/>
<path d="M0 0 C2 3 2 3 1.81 5.12 C1.54 5.74 1.28 6.36 1 7 C0.01 7.33 -0.98 7.66 -2 8 C-2.99 7.34 -3.98 6.68 -5 6 C-5.19 3.38 -5.19 3.38 -5 1 C-3 0 -3 0 0 0 Z " fill="#00264D" transform="translate(259,378)"/>
<path d="M0 0 C1.65 0 3.3 0 5 0 C5.33 1.98 5.66 3.96 6 6 C3.62 6.62 3.62 6.62 1 7 C0.34 6.34 -0.32 5.68 -1 5 C-0.62 2.38 -0.62 2.38 0 0 Z " fill="#00264D" transform="translate(839,377)"/>
<path d="M0 0 C1.65 0 3.3 0 5 0 C5.33 1.98 5.66 3.96 6 6 C3.62 6.62 3.62 6.62 1 7 C0.34 6.34 -0.32 5.68 -1 5 C-0.62 2.38 -0.62 2.38 0 0 Z " fill="#00264D" transform="translate(406,365)"/>
<path d="M0 0 C1.68 0.29 3.34 0.62 5 1 C5.33 2.65 5.66 4.3 6 6 C1.25 7.12 1.25 7.12 -1 6 C-1.04 4.33 -1.04 2.67 -1 1 C-0.67 0.67 -0.34 0.34 0 0 Z " fill="#00264D" transform="translate(278,351)"/>
<path d="M0 0 C2 3 2 3 1.81 5.12 C1.54 5.74 1.28 6.36 1 7 C0.01 7.33 -0.98 7.66 -2 8 C-2.99 7.34 -3.98 6.68 -5 6 C-5.19 3.38 -5.19 3.38 -5 1 C-3 0 -3 0 0 0 Z " fill="#00264D" transform="translate(637,344)"/>
<path d="M0 0 C1.65 0 3.3 0 5 0 C5.33 1.98 5.66 3.96 6 6 C3.62 6.62 3.62 6.62 1 7 C0.34 6.34 -0.32 5.68 -1 5 C-0.62 2.38 -0.62 2.38 0 0 Z " fill="#00264D" transform="translate(784,331)"/>
<path d="M0 0 C1.68 0.29 3.34 0.62 5 1 C5.33 2.65 5.66 4.3 6 6 C1.25 7.12 1.25 7.12 -1 6 C-1.04 4.33 -1.04 2.67 -1 1 C-0.67 0.67 -0.34 0.34 0 0 Z " fill="#00264D" transform="translate(656,317)"/>
<path d="M0 0 C1.65 0 3.3 0 5 0 C5.33 1.98 5.66 3.96 6 6 C3.62 6.62 3.62 6.62 1 7 C0.34 6.34 -0.32 5.68 -1 5 C-0.62 2.38 -0.62 2.38 0 0 Z " fill="#00264D" transform="translate(681,315)"/>
<path d="M0 0 C1.65 0 3.3 0 5 0 C5.33 1.98 5.66 3.96 6 6 C3.62 6.62 3.62 6.62 1 7 C0.34 6.34 -0.32 5.68 -1 5 C-0.62 2.38 -0.62 2.38 0 0 Z " fill="#00264D" transform="translate(452,310)"/>
<path d="M0 0 C1.68 0.29 3.34 0.62 5 1 C5.33 2.65 5.66 4.3 6 6 C1.25 7.12 1.25 7.12 -1 6 C-1.04 4.33 -1.04 2.67 -1 1 C-0.67 0.67 -0.34 0.34 0 0 Z " fill="#00264D" transform="translate(1034,283)"/>
<path d="M0 0 C1.65 0 3.3 0 5 0 C5.33 1.98 5.66 3.96 6 6 C3.62 6.62 3.62 6.62 1 7 C0.34 6.34 -0.32 5.68 -1 5 C-0.62 2.38 -0.62 2.38 0 0 Z " fill="#00264D" transform="translate(1059,281)"/>
<path d="M0 0 C1.65 0.33 3.3 0.66 5 1 C5.33 2.65 5.66 4.3 6 6 C3.62 6.62 3.62 6.62 1 7 C0.34 6.34 -0.32 5.68 -1 5 C-0.62 2.38 -0.62 2.38 0 0 Z " fill="#00264D" transform="translate(507,356)"/>
<path d="M0 0 C1.65 0.33 3.3 0.66 5 1 C5.33 2.65 5.66 4.3 6 6 C3.62 6.62 3.62 6.62 1 7 C0.34 6.34 -0.32 5.68 -1 5 C-0.62 2.38 -0.62 2.38 0 0 Z " fill="#00264D" transform="translate(1089,329)"/>
<path d="M0 0 C1.65 0.33 3.3 0.66 5 1 C5.33 2.65 5.66 4.3 6 6 C3.62 6.62 3.62 6.62 1 7 C0.34 6.34 -0.32 5.68 -1 5 C-0.62 2.38 -0.62 2.38 0 0 Z " fill="#00264D" transform="translate(885,322)"/>
<path d="M0 0 C1.65 0.33 3.3 0.66 5 1 C5.33 2.65 5.66 4.3 6 6 C3.62 6.62 3.62 6.62 1 7 C0.34 6.34 -0.32 5.68 -1 5 C-0.62 2.38 -0.62 2.38 0 0 Z " fill="#00264D" transform="translate(553,301)"/>
<path d="M0 0 C1.65 0.33 3.3 0.66 5 1 C5.33 2.65 5.66 4.3 6 6 C3.62 6.62 3.62 6.62 1 7 C0.34 6.34 -0.32 5.68 -1 5 C-0.62 2.38 -0.62 2.38 0 0 Z " fill="#00264D" transform="translate(931,267)"/>
<path d="M0 0 C0.33 1.65 0.66 3.3 1 5 C-0.32 5.33 -1.64 5.66 -3 6 C-3.99 4.35 -4.98 2.7 -6 1 C-3 0 -3 0 0 0 Z " fill="#FCAD16" transform="translate(828,985)"/>
<path d="M0 0 C0.33 1.65 0.66 3.3 1 5 C-2.75 6.12 -2.75 6.12 -5 5 C-4.62 3.06 -4.62 3.06 -4 1 C-2 0 -2 0 0 0 Z " fill="#FDAB0E" transform="translate(431,942)"/>
</svg>
